<?xml version="1.0" encoding="UTF-8"?>
<svg version="1.1" xmlns="http://www.w3.org/2000/svg" width="350" height="111">
<path d="M0 0 C1.03929657 -0.00100708 2.07859314 -0.00201416 3.14938354 -0.00305176 C20.46418103 0.00825978 37.40595872 0.74052776 54.5625 3.25 C56.0489502 3.4668042 56.0489502 3.4668042 57.56542969 3.68798828 C85.66845359 7.96742008 124.51279047 15.13241371 143.4453125 38.58203125 C148.26773036 45.6059877 150.72915875 51.65686838 149.5625 60.25 C146.01823166 71.85433034 136.45675501 79.78926882 126.13647461 85.42016602 C124.28929975 86.38677656 122.43029868 87.3239239 120.5625 88.25 C119.96759766 88.5500293 119.37269531 88.85005859 118.75976562 89.15917969 C93.32079396 101.76865916 63.67244171 107.05648244 35.5625 109.25 C34.50530762 109.33612549 33.44811523 109.42225098 32.35888672 109.51098633 C22.29334951 110.26425824 12.27738485 110.4511685 2.1875 110.4375 C0.94160095 110.43659363 0.94160095 110.43659363 -0.32946777 110.43566895 C-27.18600331 110.38292583 -54.20670857 108.29457076 -80.27734375 101.46923828 C-83.75227079 100.56688406 -86.8440265 100.05834808 -90.4375 100.25 C-90.4375 99.59 -90.4375 98.93 -90.4375 98.25 C-91.9225 98.745 -91.9225 98.745 -93.4375 99.25 C-93.4375 98.59 -93.4375 97.93 -93.4375 97.25 C-94.20578125 97.1778125 -94.9740625 97.105625 -95.765625 97.03125 C-100.88111713 95.94284742 -105.41687988 93.85794843 -110.1875 91.75 C-111.14527344 91.33363281 -112.10304688 90.91726562 -113.08984375 90.48828125 C-119.87671703 87.53039148 -119.87671703 87.53039148 -122.4375 86.25 C-122.623125 87.054375 -122.80875 87.85875 -123 88.6875 C-124.66736034 92.81965388 -126.95786898 95.69197102 -129.78125 99.1015625 C-131.49068445 101.16812254 -131.49068445 101.16812254 -132.51171875 103.46484375 C-133.4375 105.25 -133.4375 105.25 -135.75 106.1875 C-139.38257448 106.27197848 -140.65558203 105.60393059 -143.4375 103.25 C-147.51344132 97.18379971 -149.10960282 90.98896635 -147.75 83.75 C-146.98454292 80.62969926 -145.93381592 78.16785429 -144.25 75.4375 C-142.1732833 72.50293991 -142.1732833 72.50293991 -142.6875 69.8125 C-142.935 69.296875 -143.1825 68.78125 -143.4375 68.25 C-144.0975 68.25 -144.7575 68.25 -145.4375 68.25 C-147.1379972 70.56269658 -147.1379972 70.56269658 -148.88671875 73.55078125 C-149.57056641 74.67419922 -150.25441406 75.79761719 -150.95898438 76.95507812 C-151.68127836 78.15737864 -152.40328221 79.35985351 -153.125 80.5625 C-154.52255699 82.8724183 -155.92355154 85.18024788 -157.32421875 87.48828125 C-157.6692746 88.05773468 -158.01433044 88.62718811 -158.36984253 89.21389771 C-168.46472579 105.85031518 -168.46472579 105.85031518 -172.4375 110.25 C-175.875 110.875 -175.875 110.875 -179.4375 110.25 C-184.18097856 106.8302829 -186.86562522 101.81742242 -188.4375 96.25 C-189.08623878 90.39107788 -187.67736275 87.28789688 -184.125 82.8125 C-183.20542355 81.59105246 -182.28751902 80.36834482 -181.37109375 79.14453125 C-180.8901123 78.51111816 -180.40913086 77.87770508 -179.91357422 77.22509766 C-177.41365625 73.88002052 -175.04876777 70.44375307 -172.6875 67 C-172.2229541 66.32259766 -171.7584082 65.64519531 -171.27978516 64.94726562 C-165.88041838 57.02535495 -161.08728522 49.13830048 -157.4375 40.25 C-157.7675 39.92 -158.0975 39.59 -158.4375 39.25 C-161.31860119 39.54804495 -162.3613803 40.1738803 -164.4375 42.25 C-166.59502916 44.40752916 -167.58220458 44.5837644 -170.4375 45.25 C-171.0975 46.24 -171.7575 47.23 -172.4375 48.25 C-173.4275 48.25 -174.4175 48.25 -175.4375 48.25 C-176.0975 48.91 -176.7575 49.57 -177.4375 50.25 C-178.77083333 50.91666667 -180.10416667 51.58333333 -181.4375 52.25 C-182.0975 52.91 -182.7575 53.57 -183.4375 54.25 C-184.0975 54.559375 -184.7575 54.86875 -185.4375 55.1875 C-187.75881409 56.21786859 -187.75881409 56.21786859 -189.4375 59.25 C-191.6015625 59.76171875 -191.6015625 59.76171875 -194.0625 59.9375 C-194.87976563 60.00324219 -195.69703125 60.06898437 -196.5390625 60.13671875 C-197.16554687 60.17410156 -197.79203125 60.21148437 -198.4375 60.25 C-201.96753433 54.9549485 -200.58065428 48.92272259 -199.625 42.875 C-197.47601714 33.87023768 -190.8416387 29.18609247 -183.4375 24.25 C-181.25 24.625 -181.25 24.625 -179.4375 25.25 C-179.4375 25.91 -179.4375 26.57 -179.4375 27.25 C-178.85782471 26.92725098 -178.27814941 26.60450195 -177.6809082 26.27197266 C-175.03895981 24.80325532 -172.39451467 23.33909116 -169.75 21.875 C-168.83798828 21.36710937 -167.92597656 20.85921875 -166.98632812 20.3359375 C-166.10009766 19.84609375 -165.21386719 19.35625 -164.30078125 18.8515625 C-163.08322144 18.17601318 -163.08322144 18.17601318 -161.84106445 17.48681641 C-157.34653482 15.17403965 -153.52240301 13.25296019 -148.4375 14.25 C-144.99957152 16.91692246 -141.40109271 19.92088821 -139.70703125 24.015625 C-139.29429985 27.43710846 -139.38007983 30.80478994 -139.4375 34.25 C-138.68726563 33.34378906 -137.93703125 32.43757813 -137.1640625 31.50390625 C-120.67934806 11.79916134 -120.67934806 11.79916134 -112.4375 9.25 C-107.90806104 9.48839152 -104.70993307 9.97756693 -101.4375 13.25 C-101.4375 13.91 -101.4375 14.57 -101.4375 15.25 C-100.45910156 14.92386719 -99.48070313 14.59773437 -98.47265625 14.26171875 C-97.84141846 14.051521 -97.21018066 13.84132324 -96.55981445 13.62475586 C-95.18152585 13.16489069 -93.803761 12.70345286 -92.42651367 12.24047852 C-89.48585816 11.25377693 -86.54894549 10.28349455 -83.578125 9.390625 C-78.96256694 8.03752123 -78.96256694 8.03752123 -75.3125 5 C-74.69375 4.4225 -74.075 3.845 -73.4375 3.25 C-70.07235445 3.42405925 -67.46107005 3.73821498 -64.4375 5.25 C-62.40309275 5.06968217 -60.37573069 4.80759424 -58.35546875 4.5078125 C-57.11216797 4.32863281 -55.86886719 4.14945312 -54.58789062 3.96484375 C-53.26684479 3.76878287 -51.94588137 3.57216587 -50.625 3.375 C-33.66271188 0.86910924 -17.12321683 0.01152497 0 0 Z M-156.4375 36.25 C-155.4375 38.25 -155.4375 38.25 -155.4375 38.25 Z " fill="#BD3211" transform="translate(200.4375,-0.25)"/>
<path d="M0 0 C3.67478239 0.0031562 7.34875416 -0.02036753 11.0234375 -0.0456543 C24.53579513 -0.08105448 37.55249515 0.61472991 50.86940002 2.9533844 C53.8665707 3.47645233 56.87435429 3.92536772 59.8828125 4.37817383 C63.75461963 4.99135595 67.24077144 6.03068801 70.9453125 7.31567383 C72.64169119 7.87108232 74.33833307 8.42568727 76.03515625 8.97973633 C85.20738948 12.03113814 94.26595732 15.07909872 102.8203125 19.62817383 C103.43769287 19.95317871 104.05507324 20.27818359 104.69116211 20.61303711 C108.81199957 22.91573503 108.81199957 22.91573503 109.9453125 26.31567383 C108.6253125 26.31567383 107.3053125 26.31567383 105.9453125 26.31567383 C105.9453125 28.95567383 105.9453125 31.59567383 105.9453125 34.31567383 C107.2653125 34.31567383 108.5853125 34.31567383 109.9453125 34.31567383 C110.20732003 38.85624186 110.36673576 43.39486786 110.5078125 47.94067383 C110.58322266 49.22586914 110.65863281 50.51106445 110.73632812 51.83520508 C110.9514991 61.06364912 110.9514991 61.06364912 108.28857422 64.37719727 C105.91815937 66.02650308 103.59636691 67.17374102 100.9453125 68.31567383 C100.09791504 68.7481543 99.25051758 69.18063477 98.37744141 69.6262207 C91.32107309 73.10949715 83.94349805 75.33015979 76.3828125 77.44067383 C75.1448291 77.78759277 73.9068457 78.13451172 72.63134766 78.49194336 C28.83384051 90.50213472 -21.21113282 89.74868459 -65.0546875 78.31567383 C-63.4046875 76.33567383 -61.7546875 74.35567383 -60.0546875 72.31567383 C-61.3746875 72.31567383 -62.6946875 72.31567383 -64.0546875 72.31567383 C-65.0446875 72.31567383 -66.0346875 72.31567383 -67.0546875 72.31567383 C-66.6834375 71.77942383 -66.3121875 71.24317383 -65.9296875 70.69067383 C-64.70611367 67.36954486 -65.75005739 65.50476966 -67.0546875 62.31567383 C-67.9621875 62.99629883 -68.8696875 63.67692383 -69.8046875 64.37817383 C-73.0546875 66.31567383 -73.0546875 66.31567383 -75.3046875 66.25317383 C-77.0546875 65.31567383 -77.0546875 65.31567383 -79.0546875 62.31567383 C-79.69633167 50.85163129 -73.71411844 40.13890491 -68.2421875 30.50317383 C-63.86010572 22.87452131 -63.86010572 22.87452131 -60.20703125 14.88598633 C-56.71783126 6.13176432 -56.71783126 6.13176432 -52.1171875 3.87426758 C-49.07868645 3.15952926 -46.17534773 2.80222435 -43.07440186 2.5186615 C-41.23295845 2.33359062 -39.39890355 2.07842129 -37.56689453 1.81591797 C-25.05846758 0.05816594 -12.61610147 -0.0226005 0 0 Z " fill="#548528" transform="translate(196.0546875,10.684326171875)"/>
<path d="M0 0 C1.03929657 -0.00100708 2.07859314 -0.00201416 3.14938354 -0.00305176 C20.46418103 0.00825978 37.40595872 0.74052776 54.5625 3.25 C56.0489502 3.4668042 56.0489502 3.4668042 57.56542969 3.68798828 C85.66845359 7.96742008 124.51279047 15.13241371 143.4453125 38.58203125 C148.26773036 45.6059877 150.72915875 51.65686838 149.5625 60.25 C146.01823166 71.85433034 136.45675501 79.78926882 126.13647461 85.42016602 C124.28929975 86.38677656 122.43029868 87.3239239 120.5625 88.25 C119.96759766 88.5500293 119.37269531 88.85005859 118.75976562 89.15917969 C93.32079396 101.76865916 63.67244171 107.05648244 35.5625 109.25 C34.50530762 109.33612549 33.44811523 109.42225098 32.35888672 109.51098633 C22.29334951 110.26425824 12.27738485 110.4511685 2.1875 110.4375 C0.94160095 110.43659363 0.94160095 110.43659363 -0.32946777 110.43566895 C-27.5245842 110.3822609 -55.06429703 108.29709067 -81.4375 101.25 C-81.4375 100.59 -81.4375 99.93 -81.4375 99.25 C-82.4275 99.25 -83.4175 99.25 -84.4375 99.25 C-84.4375 98.59 -84.4375 97.93 -84.4375 97.25 C-83.76203125 96.92386719 -83.0865625 96.59773438 -82.390625 96.26171875 C-81.49859375 95.82472656 -80.6065625 95.38773437 -79.6875 94.9375 C-78.36492187 94.29361328 -78.36492187 94.29361328 -77.015625 93.63671875 C-74.42307293 92.39632795 -74.42307293 92.39632795 -72.671875 90.51953125 C-68.9875444 88.42616159 -65.48085319 89.52509918 -61.4375 90.25 C-60.22562012 90.4663208 -60.22562012 90.4663208 -58.98925781 90.68701172 C-57.27245609 91.00495032 -55.5568325 91.32930014 -53.84228516 91.65917969 C-5.07826179 100.92717078 61.50642692 101.95404872 104.5625 73.25 C105.07396198 70.34386566 105.07396198 70.34386566 105.07421875 66.9296875 C105.10966797 65.67285156 105.14511719 64.41601562 105.18164062 63.12109375 C105.21547852 61.14302734 105.21547852 61.14302734 105.25 59.125 C105.28316529 57.78512241 105.31765422 56.44527689 105.35351562 55.10546875 C105.43623327 51.8203967 105.50530693 48.53559968 105.5625 45.25 C104.2425 45.25 102.9225 45.25 101.5625 45.25 C101.5625 42.61 101.5625 39.97 101.5625 37.25 C102.8825 37.25 104.2025 37.25 105.5625 37.25 C102.25944404 33.43878159 98.4475953 31.44471887 93.9375 29.375 C93.19910889 29.03130371 92.46071777 28.68760742 91.69995117 28.33349609 C84.14722619 24.90946699 76.36395694 22.29849382 68.45141602 19.8449707 C66.74459587 19.30735655 65.05095422 18.72833237 63.359375 18.14453125 C59.74578008 16.98878651 56.18818781 16.41607985 52.44238281 15.85229492 C49.71501212 15.42891061 47.00199851 14.97822471 44.28442383 14.50097656 C30.49466486 12.1891032 16.94927152 11.8177345 2.98632812 11.91381836 C-0.69683579 11.93756018 -4.37927796 11.9343325 -8.0625 11.92773438 C-23.78364686 11.94675429 -38.88957039 12.77441045 -54.3359375 15.8828125 C-56.4375 16.25 -56.4375 16.25 -59.4375 16.25 C-59.54690918 16.96679932 -59.65631836 17.68359863 -59.76904297 18.42211914 C-60.49354328 21.48708888 -61.60446412 23.74670898 -63.1328125 26.49609375 C-63.68090576 27.4917334 -64.22899902 28.48737305 -64.79370117 29.51318359 C-65.37740479 30.56070801 -65.9611084 31.60823242 -66.5625 32.6875 C-67.7499963 34.85475784 -68.93620215 37.02272326 -70.12109375 39.19140625 C-70.69327637 40.23570801 -71.26545898 41.28000977 -71.85498047 42.35595703 C-80.40024325 57.88141195 -80.40024325 57.88141195 -82.4375 75.25 C-84.36374749 73.64564533 -85.33803266 72.71418091 -85.87109375 70.2265625 C-85.89135591 58.02874093 -80.97394019 47.54493489 -75.0625 37.125 C-74.51078125 36.13113281 -73.9590625 35.13726562 -73.390625 34.11328125 C-71.18737431 30.14639562 -68.98568531 26.18280166 -66.68652344 22.27050781 C-66.13770508 21.31756836 -65.58888672 20.36462891 -65.0234375 19.3828125 C-64.52634277 18.5386377 -64.02924805 17.69446289 -63.51708984 16.82470703 C-62.25085108 13.80486216 -62.24186263 11.49308842 -62.4375 8.25 C-63.4275 7.92 -64.4175 7.59 -65.4375 7.25 C-65.1075 6.59 -64.7775 5.93 -64.4375 5.25 C-61.86816406 4.67163086 -61.86816406 4.67163086 -58.453125 4.21484375 C-57.20660156 4.04533203 -55.96007812 3.87582031 -54.67578125 3.70117188 C-54.01916504 3.61665771 -53.36254883 3.53214355 -52.68603516 3.44506836 C-50.73603365 3.19375495 -48.78789577 2.92811242 -46.83984375 2.66210938 C-31.18697358 0.57559297 -15.77064399 0.0106146 0 0 Z " fill="#EAC647" transform="translate(200.4375,-0.25)"/>
<path d="M0 0 C2.22922955 2.22922955 2.88128953 4.09135278 4 7 C5.94090826 8.94090826 9.47293902 8.39919435 12.0625 8.5625 C13.99802734 8.68818359 13.99802734 8.68818359 15.97265625 8.81640625 C16.97167969 8.87699219 17.97070312 8.93757813 19 9 C19 9.66 19 10.32 19 11 C20.98 10.34 22.96 9.68 25 9 C2.63874057 33.14604146 -53.50691499 35.70981471 -84 37 C-90.12401218 37.18048145 -96.24876487 37.19579905 -102.375 37.1875 C-103.62089905 37.18659363 -103.62089905 37.18659363 -104.89196777 37.18566895 C-132.0870842 37.1322609 -159.62679703 35.04709067 -186 28 C-186 27.34 -186 26.68 -186 26 C-186.99 26 -187.98 26 -189 26 C-189 25.34 -189 24.68 -189 24 C-187.98679687 23.51080078 -187.98679687 23.51080078 -186.953125 23.01171875 C-185.61507812 22.35623047 -185.61507812 22.35623047 -184.25 21.6875 C-183.36828125 21.25824219 -182.4865625 20.82898438 -181.578125 20.38671875 C-178.98557293 19.14632795 -178.98557293 19.14632795 -177.234375 17.26953125 C-173.5500444 15.17616159 -170.04335319 16.27509918 -166 17 C-165.19208008 17.14421387 -164.38416016 17.28842773 -163.55175781 17.43701172 C-161.83495609 17.75495032 -160.1193325 18.07930014 -158.40478516 18.40917969 C-109.64076179 27.67717078 -43.05607308 28.70404872 0 0 Z " fill="#DAB639" transform="translate(305,73)"/>
<path d="M0 0 C0.33 0 0.66 0 1 0 C1.33 14.52 1.66 29.04 2 44 C20.81 44.495 20.81 44.495 40 45 C40 32.46 40 19.92 40 7 C40.33 7 40.66 7 41 7 C41.495 13.435 41.495 13.435 42 20 C43.98 20.495 43.98 20.495 46 21 C45.34773438 21.67933594 44.69546875 22.35867187 44.0234375 23.05859375 C41.5302835 26.68281183 41.52252497 28.7073113 41.625 33.0625 C41.64433594 34.87427734 41.64433594 34.87427734 41.6640625 36.72265625 C41.97487217 39.75485754 42.24181244 41.53971741 44 44 C46.92669691 44.97556564 48.44061321 45.0606341 51.44921875 44.87890625 C52.21322998 44.83580322 52.97724121 44.7927002 53.7644043 44.74829102 C54.72902588 44.68697998 55.69364746 44.62566895 56.6875 44.5625 C59.760625 44.376875 62.83375 44.19125 66 44 C66.33 31.79 66.66 19.58 67 7 C67.33 7 67.66 7 68 7 C68 19.54 68 32.08 68 45 C71.96 45 75.92 45 80 45 C77.52690207 47.47309793 75.66470096 47.86237617 72.3125 48.83984375 C70.56622314 49.349104 70.56622314 49.349104 68.78466797 49.86865234 C67.53572754 50.22137207 66.28678711 50.5740918 65 50.9375 C64.3624176 51.11774719 63.72483521 51.29799438 63.06793213 51.48370361 C18.44915391 64.02743366 -32.20823359 63.68027436 -77 52 C-75.25708129 49.32068967 -73.48800179 47.02405064 -71 45 C-68.63642832 44.56753489 -66.64653405 44.68023604 -64.2578125 44.88671875 C-60.85884432 45.05725522 -58.19919883 44.08908896 -55 43 C-53.85595013 38.90319435 -53.87390533 34.95946469 -53.90234375 30.734375 C-53.9037587 29.94097717 -53.90517365 29.14757935 -53.90663147 28.33013916 C-53.91221585 25.80338728 -53.92476546 23.27672496 -53.9375 20.75 C-53.94251702 19.03385545 -53.94707957 17.31770951 -53.95117188 15.6015625 C-53.96218016 11.40100731 -53.97943404 7.20051883 -54 3 C-53.01 2.67 -52.02 2.34 -51 2 C-51.01571045 3.16047852 -51.0314209 4.32095703 -51.04760742 5.51660156 C-51.10193924 9.82528737 -51.13636191 14.13394293 -51.16479492 18.44287109 C-51.17987414 20.30718072 -51.20034061 22.17145492 -51.22631836 24.03564453 C-51.26273996 26.71656033 -51.2797349 29.3970068 -51.29296875 32.078125 C-51.30845261 32.91055725 -51.32393646 33.7429895 -51.33988953 34.60064697 C-51.35455315 39.30743986 -51.35455315 39.30743986 -49.48168945 43.55761719 C-48.99273193 44.03360352 -48.50377441 44.50958984 -48 45 C-48.66 45 -49.32 45 -50 45 C-50 47.97 -50 50.94 -50 54 C-47.10112882 53.96688725 -44.20983378 53.89962106 -41.3125 53.8125 C-40.49587891 53.80669922 -39.67925781 53.80089844 -38.83789062 53.79492188 C-38.04189453 53.76591797 -37.24589844 53.73691406 -36.42578125 53.70703125 C-35.69786377 53.6913208 -34.96994629 53.67561035 -34.2199707 53.65942383 C-30.6241054 52.59130196 -29.21954681 51.00910137 -27 48 C-26.26881137 44.70139879 -26.2784861 41.47425206 -26.29296875 38.10546875 C-26.27784744 37.15811356 -26.26272614 36.21075836 -26.24714661 35.23469543 C-26.20427253 32.21872144 -26.1954318 29.20374837 -26.1875 26.1875 C-26.1643555 24.13864527 -26.13899026 22.08981434 -26.11132812 20.04101562 C-26.04847841 15.02725528 -26.01614089 10.0141195 -26 5 C-25.67 5 -25.34 5 -25 5 C-25 9.62 -25 14.24 -25 19 C-23.02 19 -21.04 19 -19 19 C-19.81339844 19.82242188 -20.62679687 20.64484375 -21.46484375 21.4921875 C-24.47755494 25.11680577 -24.72008695 28.53368296 -24.5625 33.125 C-24.57893555 34.17880859 -24.57893555 34.17880859 -24.59570312 35.25390625 C-24.55182208 38.34898246 -24.2664184 40.57703222 -22.60522461 43.21435547 C-18.53597781 46.00345406 -14.55502216 45.4249728 -9.75 45.25 C-8.81414062 45.23195312 -7.87828125 45.21390625 -6.9140625 45.1953125 C-4.60832985 45.14825673 -2.30469055 45.08253713 0 45 C-0.03552979 43.74340576 -0.07105957 42.48681152 -0.10766602 41.19213867 C-0.23792537 36.5350495 -0.36112417 31.87779579 -0.48217773 27.22045898 C-0.53558505 25.20380535 -0.59091343 23.18720165 -0.64819336 21.1706543 C-0.73013953 18.27403531 -0.80520145 15.37730769 -0.87890625 12.48046875 C-0.90594131 11.57725388 -0.93297638 10.674039 -0.96083069 9.74345398 C-0.98092697 8.90280899 -1.00102325 8.062164 -1.02172852 7.19604492 C-1.04171402 6.45658127 -1.06169952 5.71711761 -1.08229065 4.95524597 C-1 3 -1 3 0 0 Z " fill="#4E7C24" transform="translate(208,37)"/>
<path d="M0 0 C0.61875 0.28875 1.2375 0.5775 1.875 0.875 C2.473125 0.565625 3.07125 0.25625 3.6875 -0.0625 C7.02734032 -1.68470816 9.34320234 -1.00794941 12.875 -0.125 C15.06933594 1.34472656 15.06933594 1.34472656 16.875 3.875 C17.42715804 6.99919133 17.34017504 10.07047133 17.265625 13.234375 C17.25996521 14.13875305 17.25430542 15.0431311 17.24847412 15.97491455 C17.22611248 18.85881853 17.17591686 21.74147261 17.125 24.625 C17.10493471 26.58201329 17.08668399 28.53904608 17.0703125 30.49609375 C17.02624839 35.28954289 16.95722252 40.08205965 16.875 44.875 C11.48153012 44.89964849 6.08809275 44.91783531 0.69458008 44.92993164 C-1.14168875 44.93497231 -2.97795354 44.94180477 -4.81420898 44.95043945 C-7.44776401 44.96251672 -10.08126616 44.96823081 -12.71484375 44.97265625 C-13.95390724 44.98039818 -13.95390724 44.98039818 -15.21800232 44.98829651 C-17.18736368 44.98849205 -19.15661614 44.93704152 -21.125 44.875 C-22.125 43.875 -22.125 43.875 -22.24525452 42.08433533 C-22.24303391 41.30490067 -22.24081329 40.525466 -22.23852539 39.72241211 C-22.23841209 38.40115578 -22.23841209 38.40115578 -22.23829651 37.0532074 C-22.23055458 35.61727989 -22.23055458 35.61727989 -22.22265625 34.15234375 C-22.2212413 33.17713272 -22.21982635 32.20192169 -22.21836853 31.19715881 C-22.21275133 28.06890857 -22.20019593 24.94072877 -22.1875 21.8125 C-22.18248722 19.69726666 -22.17792393 17.58203219 -22.17382812 15.46679688 C-22.16277631 10.26950704 -22.14602146 5.07225855 -22.125 -0.125 C-19.91687393 -0.29439049 -17.70848776 -0.46039222 -15.5 -0.625 C-14.27023438 -0.7178125 -13.04046875 -0.810625 -11.7734375 -0.90625 C-2.73538683 -1.44814597 -2.73538683 -1.44814597 0 0 Z " fill="#3363AA" transform="translate(231.125,37.125)"/>
<path d="M0 0 C0.87914062 0.07025391 1.75828125 0.14050781 2.6640625 0.21289062 C4.81981147 0.38863103 6.97283362 0.59728336 9.125 0.8125 C9.25171128 7.8598309 9.33931394 14.90686845 9.3996582 21.95507812 C9.42481212 24.35297625 9.45893919 26.75079764 9.50219727 29.1484375 C9.56280735 32.59394249 9.59120156 36.03843446 9.61328125 39.484375 C9.63908768 40.55741882 9.6648941 41.63046265 9.69148254 42.73602295 C9.69427464 50.13469814 9.69427464 50.13469814 6.87109375 53.49609375 C4.17286657 54.78955401 2.65311269 55.28812914 -0.30078125 55.203125 C-1.09677734 55.19023438 -1.89277344 55.17734375 -2.71289062 55.1640625 C-3.52951172 55.13054687 -4.34613281 55.09703125 -5.1875 55.0625 C-6.44143555 55.03542969 -6.44143555 55.03542969 -7.72070312 55.0078125 C-9.77263228 54.96091126 -11.82396756 54.88917411 -13.875 54.8125 C-13.85179687 54.12542969 -13.82859375 53.43835938 -13.8046875 52.73046875 C-13.78664062 51.82941406 -13.76859375 50.92835937 -13.75 50 C-13.72679687 49.10667969 -13.70359375 48.21335938 -13.6796875 47.29296875 C-13.69214173 44.55847286 -13.69214173 44.55847286 -15.875 41.8125 C-16.11906548 39.04235677 -16.25095501 36.37509727 -16.28125 33.6015625 C-16.29265015 32.79641205 -16.30405029 31.9912616 -16.3157959 31.16171265 C-16.33467828 29.45877323 -16.34775693 27.75576102 -16.35546875 26.05273438 C-16.37488331 23.4531248 -16.43692549 20.85667958 -16.5 18.2578125 C-16.51306122 16.60158124 -16.52356173 14.94532741 -16.53125 13.2890625 C-16.5559436 12.51495026 -16.58063721 11.74083801 -16.6060791 10.94326782 C-16.57258295 6.86544855 -16.01127275 4.98349979 -13.45117188 1.77099609 C-9.24550081 -1.1787693 -4.89172957 -0.51201085 0 0 Z " fill="#3462A7" transform="translate(171.875,36.1875)"/>
<path d="M0 0 C3.12193955 2.10549411 4.10858528 3.40272822 5.6875 6.8125 C5.95161234 9.7379964 6.06180907 12.44028589 6.015625 15.359375 C6.01281525 16.57708588 6.01281525 16.57708588 6.00994873 17.81939697 C6.00324896 19.52726375 5.98937584 21.23511573 5.96875 22.94287109 C5.93744004 25.56752653 5.92776136 28.19158209 5.921875 30.81640625 C5.91271078 32.47656989 5.90233687 34.13672738 5.890625 35.796875 C5.88425018 36.97959991 5.88425018 36.97959991 5.87774658 38.18621826 C5.80469641 43.69530359 5.80469641 43.69530359 4.6875 44.8125 C1.62204553 45.24849819 -1.47316546 45.37595697 -4.5625 45.5625 C-5.42230469 45.63082031 -6.28210938 45.69914062 -7.16796875 45.76953125 C-12.04540034 46.06262806 -15.4302194 46.19784868 -19.3125 42.8125 C-20.45794249 39.37617253 -20.5522802 36.55818045 -20.625 32.9375 C-20.66238281 31.72320312 -20.69976562 30.50890625 -20.73828125 29.2578125 C-20.24022309 25.22765381 -19.14277718 23.65853011 -16.3125 20.8125 C-15.6525 20.4825 -14.9925 20.1525 -14.3125 19.8125 C-15.9625 19.4825 -17.6125 19.1525 -19.3125 18.8125 C-20.07277167 6.32714975 -20.07277167 6.32714975 -18.3046875 2.8046875 C-13.25758218 -2.24241782 -6.32879888 -2.26881469 0 0 Z " fill="#3563AA" transform="translate(269.3125,37.1875)"/>
<path d="M0 0 C2.5625 1.6875 2.5625 1.6875 4.5625 4.6875 C4.75800422 7.25469167 4.84264462 9.71060438 4.828125 12.27734375 C4.83003845 13.01827774 4.8319519 13.75921173 4.83392334 14.52259827 C4.83528333 16.0885553 4.83159984 17.65452367 4.82324219 19.22045898 C4.81255483 21.61272648 4.82313554 24.00424046 4.8359375 26.39648438 C4.83461557 27.91927249 4.8320525 29.44206013 4.828125 30.96484375 C4.83217346 31.67849594 4.83622192 32.39214813 4.84039307 33.12742615 C4.80608462 36.77752148 4.7453675 39.67498008 2.5625 42.6875 C-3.37228277 46.01097835 -8.46993749 46.58921875 -15.1875 45.0625 C-17.94404601 44.60307567 -19.11362302 45.2243182 -21.4375 46.6875 C-21.086875 45.90375 -20.73625 45.12 -20.375 44.3125 C-20.065625 43.44625 -19.75625 42.58 -19.4375 41.6875 C-19.7675 41.0275 -20.0975 40.3675 -20.4375 39.6875 C-20.72104633 34.74697436 -20.75121247 29.80555999 -20.78759766 24.85766602 C-20.80414678 23.20778284 -20.83142356 21.55797105 -20.86962891 19.90844727 C-20.92451149 17.52582742 -20.9462871 15.14488628 -20.9609375 12.76171875 C-20.98360687 12.02821701 -21.00627625 11.29471527 -21.02963257 10.53898621 C-21.01340903 6.58907088 -20.58423726 4.87158607 -18.09228516 1.74536133 C-12.68027892 -2.44976471 -6.23119804 -2.37918471 0 0 Z " fill="#3463AA" transform="translate(150.4375,37.3125)"/>
<path d="M0 0 C3.125 1.6875 3.125 1.6875 5.125 4.6875 C5.36550903 6.56681824 5.36550903 6.56681824 5.35205078 8.69995117 C5.35189972 9.50055466 5.35174866 10.30115814 5.35159302 11.12602234 C5.34127045 11.98548965 5.33094788 12.84495697 5.3203125 13.73046875 C5.3174826 14.6140657 5.31465271 15.49766266 5.31173706 16.40803528 C5.30054097 19.23049454 5.27543751 22.05263662 5.25 24.875 C5.23996946 26.78840688 5.23084374 28.70181873 5.22265625 30.61523438 C5.20060351 35.30611182 5.16607762 39.99675213 5.125 44.6875 C2.72918621 44.88843922 0.33335713 45.08909537 -2.06265259 45.28768921 C-3.90578823 45.4442258 -5.74764655 45.61598086 -7.58862305 45.79614258 C-11.9717589 46.08717397 -14.19620037 46.12210253 -17.98046875 43.69921875 C-20.32652737 39.96971113 -20.61842523 36.96659819 -20.5 32.6875 C-20.51933594 31.98882812 -20.53867188 31.29015625 -20.55859375 30.5703125 C-20.52007277 26.48708867 -20.00226499 24.83786848 -17.3359375 21.6875 C-16.52382812 21.0275 -15.71171875 20.3675 -14.875 19.6875 C-16.525 19.3575 -18.175 19.0275 -19.875 18.6875 C-19.98364945 16.62617858 -20.06088321 14.56318679 -20.125 12.5 C-20.17140625 11.35144531 -20.2178125 10.20289063 -20.265625 9.01953125 C-19.80008752 5.04849651 -18.62471014 3.51929104 -15.875 0.6875 C-11.27999673 -2.75875245 -5.07134748 -2.01159921 0 0 Z " fill="#3967AB" transform="translate(202.875,37.3125)"/>
<path d="M0 0 C1.60661224 2.08760879 1.6630458 3.10887575 1.60424805 5.71557617 C1.59458008 6.47290039 1.58491211 7.23022461 1.57495117 8.01049805 C1.54981445 8.79618164 1.52467773 9.58186523 1.4987793 10.39135742 C1.47847656 11.58728516 1.47847656 11.58728516 1.45776367 12.80737305 C1.42245019 14.77315709 1.36864376 16.73859325 1.3112793 18.70385742 C-0.50114122 18.73073021 -2.31367304 18.75019458 -4.1262207 18.76635742 C-5.13555664 18.77795898 -6.14489258 18.78956055 -7.18481445 18.80151367 C-9.6887207 18.70385742 -9.6887207 18.70385742 -10.6887207 17.70385742 C-11.0187207 26.28385742 -11.3487207 34.86385742 -11.6887207 43.70385742 C-15.6487207 43.70385742 -19.6087207 43.70385742 -23.6887207 43.70385742 C-23.6887207 28.85385742 -23.6887207 14.00385742 -23.6887207 -1.29614258 C-3.56179284 -2.73378028 -3.56179284 -2.73378028 0 0 Z " fill="#6288BF" transform="translate(299.688720703125,38.296142578125)"/>
<path d="M0 0 C2.97 0 5.94 0 9 0 C9 2.64 9 5.28 9 8 C10.65 8 12.3 8 14 8 C14 9.98 14 11.96 14 14 C12.35 14 10.7 14 9 14 C9.33 23.24 9.66 32.48 10 42 C11.65 42.33 13.3 42.66 15 43 C15 45.64 15 48.28 15 51 C13.2507786 51.08142927 11.50045458 51.13938541 9.75 51.1875 C8.77546875 51.22230469 7.8009375 51.25710937 6.796875 51.29296875 C3.42031937 50.93927926 2.32510225 50.46996078 0 48 C-0.35632458 45.28369557 -0.46742617 42.97857076 -0.390625 40.26953125 C-0.38496521 39.51911057 -0.37930542 38.76868988 -0.37347412 37.99552917 C-0.35109668 35.60053496 -0.30090171 33.20704131 -0.25 30.8125 C-0.22993659 29.18817266 -0.21168553 27.56382185 -0.1953125 25.93945312 C-0.15122794 21.95905793 -0.08219427 17.97978329 0 14 C-1.65 14 -3.3 14 -5 14 C-5 12.02 -5 10.04 -5 8 C-3.35 8 -1.7 8 0 8 C0 5.36 0 2.72 0 0 Z " fill="#3465AE" transform="translate(308,30)"/>
<path d="M0 0 C0.9958726 3.0982703 1.01232428 4.91701241 0 8 C-1.19140625 9.921875 -1.19140625 9.921875 -2.5625 11.75 C-3.01753906 12.36359375 -3.47257812 12.9771875 -3.94140625 13.609375 C-4.29074219 14.06828125 -4.64007813 14.5271875 -5 15 C-3.8938328 17.81569832 -3.05028429 18.96410549 -0.54296875 20.75390625 C2.52725847 23.46570449 3.02221629 25.25286073 4 29.1875 C5.60850907 35.02823374 7.77663687 39.8875347 11 45 C6.15806173 43.77787616 1.53957352 42.30427521 -2.98046875 40.171875 C-3.67462891 39.84711182 -4.36878906 39.52234863 -5.08398438 39.18774414 C-6.46530944 38.53090932 -7.8382376 37.85605618 -9.20117188 37.16186523 C-12.8719958 35.42350957 -14.60291345 34.94587062 -18.75390625 35.51171875 C-22.30234459 37.13862008 -23.6101606 38.4152409 -25.75 41.625 C-27.421875 44.1015625 -27.421875 44.1015625 -29 46 C-29.99 46 -30.98 46 -32 46 C-31.401875 45.484375 -30.80375 44.96875 -30.1875 44.4375 C-27.79113626 42.02939022 -27.79113626 42.02939022 -26.5 38.5 C-25 35 -25 35 -23 33.0625 C-20.64822751 30.63723462 -20.03615429 28.26613148 -18.95703125 25.12109375 C-17.54499803 21.99156705 -15.37188988 19.84329281 -13.04296875 17.35546875 C-10.0568063 13.91253193 -7.5629987 10.1686721 -5.02099609 6.3918457 C-3.4580778 4.07652651 -1.98116888 1.98116888 0 0 Z " fill="#E9C23D" transform="translate(96,51)"/>
<path d="M0 0 C0.61875 0.28875 1.2375 0.5775 1.875 0.875 C2.473125 0.565625 3.07125 0.25625 3.6875 -0.0625 C7.02734032 -1.68470816 9.34320234 -1.00794941 12.875 -0.125 C15.06933594 1.34472656 15.06933594 1.34472656 16.875 3.875 C17.42715804 6.99919133 17.34017504 10.07047133 17.265625 13.234375 C17.25996521 14.13875305 17.25430542 15.0431311 17.24847412 15.97491455 C17.22611248 18.85881853 17.17591686 21.74147261 17.125 24.625 C17.10493471 26.58201329 17.08668399 28.53904608 17.0703125 30.49609375 C17.02624839 35.28954289 16.95722252 40.08205965 16.875 44.875 C11.48153012 44.89964849 6.08809275 44.91783531 0.69458008 44.92993164 C-1.14168875 44.93497231 -2.97795354 44.94180477 -4.81420898 44.95043945 C-7.44776401 44.96251672 -10.08126616 44.96823081 -12.71484375 44.97265625 C-13.95390724 44.98039818 -13.95390724 44.98039818 -15.21800232 44.98829651 C-17.18736368 44.98849205 -19.15661614 44.93704152 -21.125 44.875 C-22.125 43.875 -22.125 43.875 -22.24525452 42.08433533 C-22.24303391 41.30490067 -22.24081329 40.525466 -22.23852539 39.72241211 C-22.23841209 38.40115578 -22.23841209 38.40115578 -22.23829651 37.0532074 C-22.23055458 35.61727989 -22.23055458 35.61727989 -22.22265625 34.15234375 C-22.2212413 33.17713272 -22.21982635 32.20192169 -22.21836853 31.19715881 C-22.21275133 28.06890857 -22.20019593 24.94072877 -22.1875 21.8125 C-22.18248722 19.69726666 -22.17792393 17.58203219 -22.17382812 15.46679688 C-22.16277631 10.26950704 -22.14602146 5.07225855 -22.125 -0.125 C-19.91687393 -0.29439049 -17.70848776 -0.46039222 -15.5 -0.625 C-14.27023438 -0.7178125 -13.04046875 -0.810625 -11.7734375 -0.90625 C-2.73538683 -1.44814597 -2.73538683 -1.44814597 0 0 Z M-20.125 0.875 C-20.125 15.065 -20.125 29.255 -20.125 43.875 C-17.155 43.875 -14.185 43.875 -11.125 43.875 C-10.795 31.995 -10.465 20.115 -10.125 7.875 C-9.465 7.875 -8.805 7.875 -8.125 7.875 C-7.795 19.755 -7.465 31.635 -7.125 43.875 C-4.155 43.875 -1.185 43.875 1.875 43.875 C1.875 31.995 1.875 20.115 1.875 7.875 C3.195 7.875 4.515 7.875 5.875 7.875 C5.875 19.755 5.875 31.635 5.875 43.875 C8.845 43.875 11.815 43.875 14.875 43.875 C14.94910727 38.23334639 15.00358167 32.59197553 15.03979492 26.94995117 C15.0548898 25.03030462 15.07536773 23.1106926 15.10131836 21.19116211 C15.13767109 18.43334436 15.15471912 15.6759822 15.16796875 12.91796875 C15.18345261 12.05850143 15.19893646 11.19903412 15.21488953 10.31352234 C15.21522942 9.11261711 15.21522942 9.11261711 15.21557617 7.88745117 C15.22223801 7.1835173 15.22889984 6.47958344 15.23576355 5.75431824 C14.75743252 3.26255809 13.88834979 2.38216231 11.875 0.875 C7.66035248 0.56280389 3.98628825 1.0285583 -0.125 1.875 C-0.455 1.545 -0.785 1.215 -1.125 0.875 C-7.395 0.875 -13.665 0.875 -20.125 0.875 Z " fill="#D1DADC" transform="translate(231.125,37.125)"/>
<path d="M0 0 C0.99 0 1.98 0 3 0 C1.76395437 6.81862533 -0.29417666 12.1974289 -3.625 18.25 C-4.067229 19.06831299 -4.50945801 19.88662598 -4.96508789 20.72973633 C-6.29207424 23.16369674 -7.63992671 25.58439268 -9 28 C-9.39654785 28.70495605 -9.7930957 29.40991211 -10.20166016 30.13623047 C-14.71340877 38.05858819 -14.71340877 38.05858819 -17 41 C-17.99 41 -18.98 41 -20 41 C-20.33 40.01 -20.66 39.02 -21 38 C-21.66 38 -22.32 38 -23 38 C-23.40605469 38.83144531 -23.40605469 38.83144531 -23.8203125 39.6796875 C-25.1045571 42.20565205 -26.46036258 44.66954127 -27.875 47.125 C-28.36742188 47.99382812 -28.85984375 48.86265625 -29.3671875 49.7578125 C-31.12880969 52.17688221 -32.31949406 52.81459697 -35 54 C-38.42319867 57.76551853 -41.25175703 61.72495537 -44 66 C-44.33 65.34 -44.66 64.68 -45 64 C-43.77514648 61.48828125 -43.77514648 61.48828125 -41.87109375 58.3125 C-41.35937119 57.45649956 -41.35937119 57.45649956 -40.83731079 56.58320618 C-39.71437216 54.71565789 -38.57734053 52.85727463 -37.4375 51 C-37.05439667 50.37072601 -36.67129333 49.74145203 -36.27658081 49.09310913 C-18.74695017 20.37347508 -18.74695017 20.37347508 -12 17 C-13.20381448 19.49361571 -14.45428722 21.68143083 -16 24 C-15.01 24 -14.02 24 -13 24 C-11.11420308 22.14959858 -11.11420308 22.14959858 -9.375 19.75 C-8.45847656 18.56664062 -8.45847656 18.56664062 -7.5234375 17.359375 C-6.09983007 15.15460862 -5.43474299 13.56145868 -5 11 C-6.98 11.99 -6.98 11.99 -9 13 C-7.51804579 9.78541276 -5.70259491 7.06664104 -3.5625 4.25 C-2.96566406 3.45078125 -2.36882812 2.6515625 -1.75390625 1.828125 C-1.17511719 1.22484375 -0.59632812 0.6215625 0 0 Z " fill="#E6BD3B" transform="translate(79,27)"/>
<path d="M0 0 C0.3125 2.1875 0.3125 2.1875 0 5 C-2.82250679 8.44973052 -4.73240394 10.03634928 -9 11 C-9.66 11.66 -10.32 12.32 -11 13 C-13.15752916 15.15752916 -14.14470458 15.3337644 -17 16 C-17.66 16.99 -18.32 17.98 -19 19 C-19.99 19 -20.98 19 -22 19 C-22.66 19.66 -23.32 20.32 -24 21 C-25.33333333 21.66666667 -26.66666667 22.33333333 -28 23 C-28.66 23.66 -29.32 24.32 -30 25 C-31.33333333 25.66666667 -32.66666667 26.33333333 -34 27 C-34.66 27.66 -35.32 28.32 -36 29 C-39.625 29.125 -39.625 29.125 -43 29 C-43.33 27.35 -43.66 25.7 -44 24 C-43.17822266 23.63261719 -43.17822266 23.63261719 -42.33984375 23.2578125 C-36.84436412 20.66644812 -31.82545482 17.65625524 -26.8125 14.25 C-21.54505936 10.67899105 -16.24232047 7.1952641 -10.8125 3.875 C-10.18899658 3.48473633 -9.56549316 3.09447266 -8.9230957 2.69238281 C-5.57033622 0.66553961 -4.03178219 0 0 0 Z " fill="#D95A2B" transform="translate(47,29)"/>
<path d="M0 0 C-1.41738489 3.25207092 -3.12526412 5.31361067 -5.6875 7.75 C-9.12726859 11.08988421 -12.2858975 14.5605521 -15.359375 18.23828125 C-17.10817057 20.11615458 -18.85959844 21.58611685 -21 23 C-21.66 23 -22.32 23 -23 23 C-22.505 18.545 -22.505 18.545 -22 14 C-22.29132813 14.79921875 -22.58265625 15.5984375 -22.8828125 16.421875 C-30.92207792 37.96103896 -30.92207792 37.96103896 -35 40 C-33.85279149 37.05167412 -32.63320939 34.14602728 -31.34375 31.2578125 C-31.04339844 30.58363281 -30.74304688 29.90945312 -30.43359375 29.21484375 C-29.814106 27.8281243 -29.1917348 26.44268916 -28.56640625 25.05859375 C-25.59667144 18.3671312 -23.71479574 12.41531075 -24 5 C-24 4.01 -24 3.02 -24 2 C-23.34 3.32 -22.68 4.64 -22 6 C-20.44539063 5.47599609 -20.44539063 5.47599609 -18.859375 4.94140625 C-17.48961023 4.48169068 -16.11981707 4.0220597 -14.75 3.5625 C-14.06808594 3.33240234 -13.38617188 3.10230469 -12.68359375 2.86523438 C-4.12941576 0 -4.12941576 0 0 0 Z " fill="#E9C258" transform="translate(121,9)"/>
<path d="M0 0 C0.99 0.33 1.98 0.66 3 1 C3 12.88 3 24.76 3 37 C5.97 37 8.94 37 12 37 C12 25.12 12 13.24 12 1 C12.99 1.33 13.98 1.66 15 2 C15 13.88 15 25.76 15 38 C10.05 38 5.1 38 0 38 C-1.78830448 36.21169552 -1.12848711 33.80418848 -1.13894653 31.42358398 C-1.1369223 30.64442627 -1.13489807 29.86526855 -1.1328125 29.0625 C-1.13376923 28.267229 -1.13472595 27.47195801 -1.13571167 26.65258789 C-1.13639343 24.9679354 -1.13453943 23.28328029 -1.13037109 21.59863281 C-1.12502275 19.01100803 -1.13031619 16.42355684 -1.13671875 13.8359375 C-1.13605797 12.20312461 -1.1347768 10.57031184 -1.1328125 8.9375 C-1.13483673 8.15834229 -1.13686096 7.37918457 -1.13894653 6.57641602 C-1.11495105 1.11495105 -1.11495105 1.11495105 0 0 Z " fill="#C5CFCD" transform="translate(221,44)"/>
<path d="M0 0 C2.5625 1.6875 2.5625 1.6875 4.5625 4.6875 C4.75800422 7.25469167 4.84264462 9.71060438 4.828125 12.27734375 C4.83003845 13.01827774 4.8319519 13.75921173 4.83392334 14.52259827 C4.83528333 16.0885553 4.83159984 17.65452367 4.82324219 19.22045898 C4.81255483 21.61272648 4.82313554 24.00424046 4.8359375 26.39648438 C4.83461557 27.91927249 4.8320525 29.44206013 4.828125 30.96484375 C4.83217346 31.67849594 4.83622192 32.39214813 4.84039307 33.12742615 C4.80608462 36.77752148 4.7453675 39.67498008 2.5625 42.6875 C-3.37228277 46.01097835 -8.46993749 46.58921875 -15.1875 45.0625 C-17.94404601 44.60307567 -19.11362302 45.2243182 -21.4375 46.6875 C-21.086875 45.90375 -20.73625 45.12 -20.375 44.3125 C-20.065625 43.44625 -19.75625 42.58 -19.4375 41.6875 C-19.7675 41.0275 -20.0975 40.3675 -20.4375 39.6875 C-20.72104633 34.74697436 -20.75121247 29.80555999 -20.78759766 24.85766602 C-20.80414678 23.20778284 -20.83142356 21.55797105 -20.86962891 19.90844727 C-20.92451149 17.52582742 -20.9462871 15.14488628 -20.9609375 12.76171875 C-20.98360687 12.02821701 -21.00627625 11.29471527 -21.02963257 10.53898621 C-21.01340903 6.58907088 -20.58423726 4.87158607 -18.09228516 1.74536133 C-12.68027892 -2.44976471 -6.23119804 -2.37918471 0 0 Z M-19.4375 5.6875 C-19.93867036 8.4123538 -20.14195211 10.50376441 -20.1015625 13.21875 C-20.10634613 13.93228638 -20.11112976 14.64582275 -20.11605835 15.38098145 C-20.1194481 16.88373022 -20.11031008 18.38655366 -20.08935547 19.88916016 C-20.06256783 22.18169475 -20.08912531 24.46933534 -20.12109375 26.76171875 C-20.11778948 28.22657324 -20.11138286 29.6914247 -20.1015625 31.15625 C-20.11168365 31.83659302 -20.12180481 32.51693604 -20.13223267 33.21789551 C-20.03902449 37.02745978 -19.49676712 38.61381805 -17.07958984 41.61889648 C-13.93473571 44.08113535 -12.38827351 44.33566728 -8.4375 44.25 C-7.426875 44.25128906 -6.41625 44.25257812 -5.375 44.25390625 C-1.64108357 43.53393566 0.02059406 42.51647 2.5625 39.6875 C3.1655807 36.41751925 3.1655807 36.41751925 2.875 32.9375 C2.82988281 31.76703125 2.78476563 30.5965625 2.73828125 29.390625 C2.68027344 28.49859375 2.62226563 27.6065625 2.5625 26.6875 C-0.4075 26.6875 -3.3775 26.6875 -6.4375 26.6875 C-6.7675 29.9875 -7.0975 33.2875 -7.4375 36.6875 C-8.0975 36.6875 -8.7575 36.6875 -9.4375 36.6875 C-9.4375 33.0575 -9.4375 29.4275 -9.4375 25.6875 C-5.4775 25.3575 -1.5175 25.0275 2.5625 24.6875 C2.69747449 21.43611456 2.79659172 18.1903234 2.875 14.9375 C2.91689453 14.01710938 2.95878906 13.09671875 3.00195312 12.1484375 C3.16413693 6.66117838 3.16413693 6.66117838 0.41796875 2.08203125 C-2.77555273 0.52240448 -4.89292931 0.12047886 -8.4375 0.125 C-9.448125 0.10308594 -10.45875 0.08117188 -11.5 0.05859375 C-15.52928592 0.92124672 -16.87035856 2.4959834 -19.4375 5.6875 Z " fill="#C8D1DA" transform="translate(150.4375,37.3125)"/>
<path d="M0 0 C3.12193955 2.10549411 4.10858528 3.40272822 5.6875 6.8125 C5.95161234 9.7379964 6.06180907 12.44028589 6.015625 15.359375 C6.01281525 16.57708588 6.01281525 16.57708588 6.00994873 17.81939697 C6.00324896 19.52726375 5.98937584 21.23511573 5.96875 22.94287109 C5.93744004 25.56752653 5.92776136 28.19158209 5.921875 30.81640625 C5.91271078 32.47656989 5.90233687 34.13672738 5.890625 35.796875 C5.88425018 36.97959991 5.88425018 36.97959991 5.87774658 38.18621826 C5.80469641 43.69530359 5.80469641 43.69530359 4.6875 44.8125 C1.62204553 45.24849819 -1.47316546 45.37595697 -4.5625 45.5625 C-5.42230469 45.63082031 -6.28210938 45.69914062 -7.16796875 45.76953125 C-12.04540034 46.06262806 -15.4302194 46.19784868 -19.3125 42.8125 C-20.45794249 39.37617253 -20.5522802 36.55818045 -20.625 32.9375 C-20.66238281 31.72320312 -20.69976562 30.50890625 -20.73828125 29.2578125 C-20.24022309 25.22765381 -19.14277718 23.65853011 -16.3125 20.8125 C-15.6525 20.4825 -14.9925 20.1525 -14.3125 19.8125 C-15.9625 19.4825 -17.6125 19.1525 -19.3125 18.8125 C-20.07277167 6.32714975 -20.07277167 6.32714975 -18.3046875 2.8046875 C-13.25758218 -2.24241782 -6.32879888 -2.26881469 0 0 Z M-16.5625 2.5625 C-19.23008783 7.51659169 -18.70788472 12.30347291 -18.3125 17.8125 C-15.3425 17.8125 -12.3725 17.8125 -9.3125 17.8125 C-8.9825 14.5125 -8.6525 11.2125 -8.3125 7.8125 C-7.6525 7.8125 -6.9925 7.8125 -6.3125 7.8125 C-5.43383891 12.8208682 -5.43383891 12.8208682 -6.3125 15.8125 C-8.69538857 18.00544818 -11.15516305 19.60560704 -13.9296875 21.26953125 C-16.55446463 22.74545987 -16.55446463 22.74545987 -18.3125 25.8125 C-18.53335401 28.54592694 -18.63707463 31.14371811 -18.625 33.875 C-18.64111328 34.60783203 -18.65722656 35.34066406 -18.67382812 36.09570312 C-18.71202472 38.47132805 -18.71202472 38.47132805 -18.3125 41.8125 C-15.15935215 43.91459857 -14.45146919 44.0559761 -10.86328125 44.0078125 C-10.01572266 44.00136719 -9.16816406 43.99492188 -8.29492188 43.98828125 C-7.41384766 43.97152344 -6.53277344 43.95476562 -5.625 43.9375 C-4.73232422 43.92847656 -3.83964844 43.91945312 -2.91992188 43.91015625 C-0.71717686 43.88659748 1.48502588 43.85370329 3.6875 43.8125 C3.81133064 38.49235484 3.90194676 33.17305286 3.9621582 27.85180664 C3.9872639 26.04273868 4.02135595 24.23377178 4.06469727 22.42504883 C4.12552579 19.82087249 4.15374809 17.21803969 4.17578125 14.61328125 C4.20158768 13.80788406 4.2273941 13.00248688 4.25398254 12.17268372 C4.25610672 7.89563835 4.06471852 6.29606016 1.34057617 2.80395508 C-2.64051561 -0.1843366 -5.66189734 0.102124 -10.484375 0.3515625 C-13.49919953 0.68504424 -13.49919953 0.68504424 -16.5625 2.5625 Z " fill="#CED7D1" transform="translate(269.3125,37.1875)"/>
<path d="M0 0 C1.50046875 0.00386719 1.50046875 0.00386719 3.03125 0.0078125 C4.0315625 0.00523438 5.031875 0.00265625 6.0625 0 C8.53125 0.1328125 8.53125 0.1328125 9.53125 1.1328125 C9.57217937 3.46578683 9.57366723 5.79986475 9.53125 8.1328125 C12.00625 8.6278125 12.00625 8.6278125 14.53125 9.1328125 C14.53125 11.7728125 14.53125 14.4128125 14.53125 17.1328125 C12.88125 17.4628125 11.23125 17.7928125 9.53125 18.1328125 C9.53125 26.7128125 9.53125 35.2928125 9.53125 44.1328125 C11.18125 44.1328125 12.83125 44.1328125 14.53125 44.1328125 C14.53125 47.4328125 14.53125 50.7328125 14.53125 54.1328125 C12.26100032 54.21378574 9.98992925 54.27198954 7.71875 54.3203125 C5.82189453 54.37251953 5.82189453 54.37251953 3.88671875 54.42578125 C0.53125 54.1328125 0.53125 54.1328125 -1.35546875 52.87109375 C-3.88492267 48.92159552 -3.5857928 44.75491227 -3.56640625 40.1796875 C-3.56428383 39.18935516 -3.56428383 39.18935516 -3.56211853 38.17901611 C-3.55654245 36.08023456 -3.54399447 33.98156155 -3.53125 31.8828125 C-3.5262319 30.45573071 -3.52166954 29.02864725 -3.51757812 27.6015625 C-3.50658088 24.11194418 -3.4893328 20.62238894 -3.46875 17.1328125 C-4.78875 17.1328125 -6.10875 17.1328125 -7.46875 17.1328125 C-7.46875 14.4928125 -7.46875 11.8528125 -7.46875 9.1328125 C-6.14875 9.1328125 -4.82875 9.1328125 -3.46875 9.1328125 C-3.489375 7.8334375 -3.51 6.5340625 -3.53125 5.1953125 C-3.55274454 3.84115617 -3.54023199 2.48525167 -3.46875 1.1328125 C-2.46875 0.1328125 -2.46875 0.1328125 0 0 Z M-1.46875 2.1328125 C-1.46875 4.7728125 -1.46875 7.4128125 -1.46875 10.1328125 C-3.11875 10.1328125 -4.76875 10.1328125 -6.46875 10.1328125 C-6.46875 12.1128125 -6.46875 14.0928125 -6.46875 16.1328125 C-4.81875 16.1328125 -3.16875 16.1328125 -1.46875 16.1328125 C-1.48969727 17.14706299 -1.51064453 18.16131348 -1.53222656 19.20629883 C-1.60461971 22.96885055 -1.65054647 26.73134074 -1.68847656 30.49438477 C-1.70859381 32.12307079 -1.73589137 33.75168458 -1.77050781 35.38012695 C-1.81902429 37.72104708 -1.84171632 40.06101268 -1.859375 42.40234375 C-1.88002014 43.13056839 -1.90066528 43.85879303 -1.92193604 44.60908508 C-1.92339494 47.89500994 -1.92249274 49.65080068 0.38085938 52.09765625 C3.15663017 53.43385836 5.21485728 53.42982653 8.28125 53.3203125 C9.26609375 53.29324219 10.2509375 53.26617187 11.265625 53.23828125 C12.38710938 53.18607422 12.38710938 53.18607422 13.53125 53.1328125 C13.53125 50.4928125 13.53125 47.8528125 13.53125 45.1328125 C11.88125 44.8028125 10.23125 44.4728125 8.53125 44.1328125 C8.20125 34.8928125 7.87125 25.6528125 7.53125 16.1328125 C9.18125 16.1328125 10.83125 16.1328125 12.53125 16.1328125 C12.53125 14.1528125 12.53125 12.1728125 12.53125 10.1328125 C10.88125 10.1328125 9.23125 10.1328125 7.53125 10.1328125 C7.53125 7.4928125 7.53125 4.8528125 7.53125 2.1328125 C4.56125 2.1328125 1.59125 2.1328125 -1.46875 2.1328125 Z " fill="#E2E2D8" transform="translate(309.46875,27.8671875)"/>
<path d="M0 0 C0.87914062 0.07025391 1.75828125 0.14050781 2.6640625 0.21289062 C4.81981147 0.38863103 6.97283362 0.59728336 9.125 0.8125 C9.25171128 7.8598309 9.33931394 14.90686845 9.3996582 21.95507812 C9.42481212 24.35297625 9.45893919 26.75079764 9.50219727 29.1484375 C9.56280735 32.59394249 9.59120156 36.03843446 9.61328125 39.484375 C9.63908768 40.55741882 9.6648941 41.63046265 9.69148254 42.73602295 C9.69427464 50.13469814 9.69427464 50.13469814 6.87109375 53.49609375 C4.17286657 54.78955401 2.65311269 55.28812914 -0.30078125 55.203125 C-1.09677734 55.19023438 -1.89277344 55.17734375 -2.71289062 55.1640625 C-3.52951172 55.13054687 -4.34613281 55.09703125 -5.1875 55.0625 C-6.44143555 55.03542969 -6.44143555 55.03542969 -7.72070312 55.0078125 C-9.77263228 54.96091126 -11.82396756 54.88917411 -13.875 54.8125 C-13.85179687 54.12542969 -13.82859375 53.43835938 -13.8046875 52.73046875 C-13.78664062 51.82941406 -13.76859375 50.92835937 -13.75 50 C-13.72679687 49.10667969 -13.70359375 48.21335938 -13.6796875 47.29296875 C-13.69214173 44.55847286 -13.69214173 44.55847286 -15.875 41.8125 C-16.11906548 39.04235677 -16.25095501 36.37509727 -16.28125 33.6015625 C-16.29265015 32.79641205 -16.30405029 31.9912616 -16.3157959 31.16171265 C-16.33467828 29.45877323 -16.34775693 27.75576102 -16.35546875 26.05273438 C-16.37488331 23.4531248 -16.43692549 20.85667958 -16.5 18.2578125 C-16.51306122 16.60158124 -16.52356173 14.94532741 -16.53125 13.2890625 C-16.5559436 12.51495026 -16.58063721 11.74083801 -16.6060791 10.94326782 C-16.57258295 6.86544855 -16.01127275 4.98349979 -13.45117188 1.77099609 C-9.24550081 -1.1787693 -4.89172957 -0.51201085 0 0 Z M-13.875 4.8125 C-14.17330052 7.64766818 -14.29538555 10.25862924 -14.2734375 13.09375 C-14.27630768 13.9036438 -14.27917786 14.7135376 -14.28213501 15.54797363 C-14.28417542 17.25936584 -14.27864709 18.97078138 -14.26611328 20.68212891 C-14.25005857 23.3029389 -14.26596194 25.92220677 -14.28515625 28.54296875 C-14.28317381 30.20573257 -14.27933013 31.86849544 -14.2734375 33.53125 C-14.27951019 34.31568481 -14.28558289 35.10011963 -14.2918396 35.9083252 C-14.26966692 40.11466669 -14.26966692 40.11466669 -12.47338867 43.80957031 C-9.40682238 45.73372707 -6.40157104 45.03640927 -2.875 44.8125 C-1.885 44.3175 -1.885 44.3175 -0.875 43.8125 C-2.875 46.8125 -2.875 46.8125 -5.2578125 47.32421875 C-6.16273438 47.38222656 -7.06765625 47.44023438 -8 47.5 C-9.36511719 47.59861328 -9.36511719 47.59861328 -10.7578125 47.69921875 C-11.80582031 47.75529297 -11.80582031 47.75529297 -12.875 47.8125 C-12.875 49.7925 -12.875 51.7725 -12.875 53.8125 C-10.47847472 53.89389142 -8.08474564 53.95317009 -5.6875 54 C-5.01396484 54.02513672 -4.34042969 54.05027344 -3.64648438 54.07617188 C0.83915591 54.14181539 3.52896893 53.50105807 7.125 50.8125 C8.33980284 49.81838545 8.33980284 49.81838545 8.24525452 47.86997986 C8.24303391 47.01948563 8.24081329 46.16899139 8.23852539 45.29272461 C8.23841209 43.85134377 8.23841209 43.85134377 8.23829651 42.38084412 C8.23313522 41.336064 8.22797394 40.29128387 8.22265625 39.21484375 C8.22053383 37.61885094 8.22053383 37.61885094 8.21836853 35.99061584 C8.21275064 32.57704917 8.20019511 29.163547 8.1875 25.75 C8.18248731 23.44205824 8.177924 21.13411545 8.17382812 18.82617188 C8.1627754 13.15492574 8.14601987 7.48371747 8.125 1.8125 C5.02101022 1.72539711 1.91733452 1.67207691 -1.1875 1.625 C-2.06857422 1.59986328 -2.94964844 1.57472656 -3.85742188 1.54882812 C-4.70498047 1.53916016 -5.55253906 1.52949219 -6.42578125 1.51953125 C-7.20606689 1.5038208 -7.98635254 1.48811035 -8.7902832 1.47192383 C-11.44788919 1.9060918 -12.30227719 2.65155151 -13.875 4.8125 Z " fill="#E7EBEB" transform="translate(171.875,36.1875)"/>
<path d="M0 0 C0.33 0 0.66 0 1 0 C1.54512443 5.66226018 -0.17948193 8.98023567 -2.875 13.75 C-3.27412598 14.48154297 -3.67325195 15.21308594 -4.08447266 15.96679688 C-6.2567351 19.93229187 -8.48794084 23.86411231 -10.71875 27.796875 C-11.16234863 28.58352539 -11.60594727 29.37017578 -12.06298828 30.18066406 C-12.91236822 31.68217307 -13.76963148 33.17926116 -14.63623047 34.67089844 C-18.60453767 41.65137207 -21.22292075 48.47882104 -21.6875 56.5625 C-21.78611328 58.11130859 -21.78611328 58.11130859 -21.88671875 59.69140625 C-21.92410156 60.45324219 -21.96148437 61.21507812 -22 62 C-23.92624749 60.39564533 -24.90053266 59.46418091 -25.43359375 56.9765625 C-25.45407207 44.64861365 -20.4033375 34.00594662 -14.5 23.4375 C-13.93152344 22.38498047 -13.36304687 21.33246094 -12.77734375 20.24804688 C-10.19556907 15.54873774 -7.88406733 11.72767881 -4 8 C-2.71219705 5.90099868 -2.71219705 5.90099868 -1.75 3.75 C-1.24726563 2.69039062 -1.24726563 2.69039062 -0.734375 1.609375 C-0.49203125 1.07828125 -0.2496875 0.5471875 0 0 Z " fill="#F08255" transform="translate(140,13)"/>
<path d="M0 0 C3.125 1.6875 3.125 1.6875 5.125 4.6875 C5.36550903 6.56681824 5.36550903 6.56681824 5.35205078 8.69995117 C5.35189972 9.50055466 5.35174866 10.30115814 5.35159302 11.12602234 C5.34127045 11.98548965 5.33094788 12.84495697 5.3203125 13.73046875 C5.3174826 14.6140657 5.31465271 15.49766266 5.31173706 16.40803528 C5.30054097 19.23049454 5.27543751 22.05263662 5.25 24.875 C5.23996946 26.78840688 5.23084374 28.70181873 5.22265625 30.61523438 C5.20060351 35.30611182 5.16607762 39.99675213 5.125 44.6875 C2.72918621 44.88843922 0.33335713 45.08909537 -2.06265259 45.28768921 C-3.90578823 45.4442258 -5.74764655 45.61598086 -7.58862305 45.79614258 C-11.9717589 46.08717397 -14.19620037 46.12210253 -17.98046875 43.69921875 C-20.32652737 39.96971113 -20.61842523 36.96659819 -20.5 32.6875 C-20.51933594 31.98882812 -20.53867188 31.29015625 -20.55859375 30.5703125 C-20.52007277 26.48708867 -20.00226499 24.83786848 -17.3359375 21.6875 C-16.52382812 21.0275 -15.71171875 20.3675 -14.875 19.6875 C-16.525 19.3575 -18.175 19.0275 -19.875 18.6875 C-19.98364945 16.62617858 -20.06088321 14.56318679 -20.125 12.5 C-20.17140625 11.35144531 -20.2178125 10.20289063 -20.265625 9.01953125 C-19.80008752 5.04849651 -18.62471014 3.51929104 -15.875 0.6875 C-11.27999673 -2.75875245 -5.07134748 -2.01159921 0 0 Z M-17.875 4.6875 C-18.4780807 7.95748075 -18.4780807 7.95748075 -18.1875 11.4375 C-18.14238281 12.60796875 -18.09726563 13.7784375 -18.05078125 14.984375 C-17.99277344 15.87640625 -17.93476563 16.7684375 -17.875 17.6875 C-15.565 18.0175 -13.255 18.3475 -10.875 18.6875 C-11.36871094 19.09742187 -11.86242187 19.50734375 -12.37109375 19.9296875 C-13.01175781 20.46851562 -13.65242187 21.00734375 -14.3125 21.5625 C-15.26962891 22.36300781 -15.26962891 22.36300781 -16.24609375 23.1796875 C-18.57392621 25.33446766 -18.85404567 26.38849776 -19.078125 29.5859375 C-19.09359375 30.73320313 -19.1090625 31.88046875 -19.125 33.0625 C-19.15078125 34.20460937 -19.1765625 35.34671875 -19.203125 36.5234375 C-18.83798 40.04447859 -18.30314861 41.18337761 -15.875 43.6875 C-13.66230798 44.23587595 -13.66230798 44.23587595 -11.20703125 44.078125 C-10.31435547 44.06523438 -9.42167969 44.05234375 -8.50195312 44.0390625 C-7.57318359 44.00554687 -6.64441406 43.97203125 -5.6875 43.9375 C-4.74712891 43.91945312 -3.80675781 43.90140625 -2.83789062 43.8828125 C-0.51590111 43.8356655 1.8040369 43.76988231 4.125 43.6875 C4.17447953 38.49138779 4.21075727 33.29541309 4.23486328 28.09912109 C4.24491384 26.33184418 4.25855642 24.56458387 4.27587891 22.79736328 C4.30016885 20.25549215 4.31149255 17.71384111 4.3203125 15.171875 C4.33063507 14.38319031 4.34095764 13.59450562 4.35159302 12.78192139 C4.37160258 7.41721485 4.37160258 7.41721485 2.125 2.6875 C-0.93266244 0.58661158 -3.6534403 0.36324979 -7.3125 0.3125 C-8.23933594 0.28414062 -9.16617188 0.25578125 -10.12109375 0.2265625 C-13.79363199 0.84125684 -15.38003373 1.93226746 -17.875 4.6875 Z " fill="#E1E7E8" transform="translate(202.875,37.3125)"/>
<path d="M0 0 C-1.59662818 4.69065907 -4.15891819 8.45040746 -6.9375 12.5 C-7.82268137 13.80135835 -8.70681934 15.1034271 -9.58984375 16.40625 C-10.00717773 17.01976318 -10.42451172 17.63327637 -10.85449219 18.26538086 C-11.8549817 19.78040174 -12.78375519 21.34229338 -13.69921875 22.91015625 C-15.24689435 25.39666209 -16.42427814 25.71213907 -19 27 C-22.42319867 30.76551853 -25.25175703 34.72495537 -28 39 C-28.33 38.34 -28.66 37.68 -29 37 C-27.63232422 34.29785156 -27.63232422 34.29785156 -25.5546875 30.890625 C-25.18779816 30.28619568 -24.82090881 29.68176636 -24.44290161 29.059021 C-23.66142684 27.7755992 -22.87597189 26.49459397 -22.08691406 25.21582031 C-20.89183828 23.27731302 -19.71060025 21.33091707 -18.53125 19.3828125 C-17.76904783 18.13491627 -17.00605075 16.88750515 -16.2421875 15.640625 C-15.89300262 15.065401 -15.54381775 14.490177 -15.18405151 13.89752197 C-6.56944838 0 -6.56944838 0 0 0 Z " fill="#F57D4D" transform="translate(63,54)"/>
<path d="M0 0 C-1.23000449 5.33001947 -3.93114962 8.73041374 -7.34375 12.8515625 C-9.05318445 14.91812254 -9.05318445 14.91812254 -10.07421875 17.21484375 C-11 19 -11 19 -13.3125 19.9375 C-16.94507448 20.02197848 -18.21808203 19.35393059 -21 17 C-24.19169903 12.24981247 -25.5289234 7.65291918 -26 2 C-25.34 2 -24.68 2 -24 2 C-23.63648438 2.83144531 -23.63648438 2.83144531 -23.265625 3.6796875 C-22.93046875 4.40414062 -22.5953125 5.12859375 -22.25 5.875 C-21.92515625 6.59429687 -21.6003125 7.31359375 -21.265625 8.0546875 C-19.7337539 10.40923011 -18.66349352 11.1417632 -16 12 C-13.9396765 12.06646367 -13.9396765 12.06646367 -12 11 C-9.84730076 8.73720736 -9.84730076 8.73720736 -7.875 6 C-3.35795455 0 -3.35795455 0 0 0 Z " fill="#901608" transform="translate(78,86)"/>
<path d="M0 0 C2.54879045 1.27439522 2.70344661 2.29822064 3.8125 4.875 C5.58878887 8.55304052 7.03696141 10.51386053 11 12 C14.26288677 12 15.16384699 10.84414555 17.5625 8.5625 C18.366875 7.716875 19.17125 6.87125 20 6 C20.99 5.34 21.98 4.68 23 4 C23.99 4.33 24.98 4.66 26 5 C24.8966898 6.58393026 23.79231456 8.16711868 22.6875 9.75 C22.07261719 10.63171875 21.45773438 11.5134375 20.82421875 12.421875 C20.22222656 13.27265625 19.62023437 14.1234375 19 15 C18.49855469 15.75667969 17.99710938 16.51335937 17.48046875 17.29296875 C16 19 16 19 12.625 19.5625 C7.97464626 18.84089338 6.82178247 17.73695516 4 14 C1.51560442 9.51022628 -0.678099 5.25526727 0 0 Z " fill="#880F07" transform="translate(12,91)"/>
<path d="M0 0 C0.93423645 3.01031744 1.04449911 3.86650268 0 7 C-1.32990059 7.34677561 -2.66362548 7.67907628 -4 8 C-5.7854557 10.25148003 -7.30127398 12.39113142 -8.8125 14.8125 C-9.23208984 15.44220703 -9.65167969 16.07191406 -10.08398438 16.72070312 C-12.45658021 20.12834135 -12.45658021 20.12834135 -12.55908203 24.07275391 C-12.37458496 24.70874512 -12.19008789 25.34473633 -12 26 C-13.58705217 30.55586617 -15.64011598 34.27665744 -19.9375 36.5625 C-20.948125 37.036875 -21.95875 37.51125 -23 38 C-24.68734204 40.03955421 -26.15698012 42.14083737 -27.60546875 44.35546875 C-28.06566406 44.89816406 -28.52585937 45.44085938 -29 46 C-29.99 46 -30.98 46 -32 46 C-31.401875 45.484375 -30.80375 44.96875 -30.1875 44.4375 C-27.79113626 42.02939022 -27.79113626 42.02939022 -26.5 38.5 C-25 35 -25 35 -23 33.0625 C-20.64822751 30.63723462 -20.03615429 28.26613148 -18.95703125 25.12109375 C-17.54499803 21.99156705 -15.37188988 19.84329281 -13.04296875 17.35546875 C-10.0568063 13.91253193 -7.5629987 10.1686721 -5.02099609 6.3918457 C-3.4580778 4.07652651 -1.98116888 1.98116888 0 0 Z " fill="#DD4C16" transform="translate(96,51)"/>
<path d="M0 0 C0.33461467 1.47887733 0.66765667 2.95811058 1 4.4375 C1.185625 5.26121094 1.37125 6.08492188 1.5625 6.93359375 C2 9 2 9 2 10 C2.99 9.67 3.98 9.34 5 9 C5.66 9.66 6.32 10.32 7 11 C-1.89068159 20.287784 -1.89068159 20.287784 -6 22 C-8.125 21.6875 -8.125 21.6875 -10 21 C-10.99 21 -11.98 21 -13 21 C-15.33333333 21 -17.66666667 21 -20 21 C-20 20.67 -20 20.34 -20 20 C-19.195625 19.7525 -18.39125 19.505 -17.5625 19.25 C-9.72083745 16.64300916 -9.72083745 16.64300916 -2.9375 12.125 C-1.70257431 9.3258351 -1.79391103 7.02263816 -2 4 C-3.65 4.66 -5.3 5.32 -7 6 C-7 5.34 -7 4.68 -7 4 C-1.47058824 0 -1.47058824 0 0 0 Z " fill="#CB3E11" transform="translate(130,72)"/>
<path d="M0 0 C8.90054879 2.75107872 17.41643491 6.40298363 26 10 C26.66 9.01 27.32 8.02 28 7 C30.20703125 6.7421875 30.20703125 6.7421875 32.8125 6.875 C36.38826209 6.98884481 39.51336927 6.9297682 43 6 C43 6.66 43 7.32 43 8 C43.66 8.33 44.32 8.66 45 9 C40.375 12 40.375 12 37 12 C37 12.66 37 13.32 37 14 C37.99 14.33 38.98 14.66 40 15 C37.03 15 34.06 15 31 15 C31 14.34 31 13.68 31 13 C30.01 13.33 29.02 13.66 28 14 C28 13.34 28 12.68 28 12 C27.23300781 11.92652344 26.46601562 11.85304688 25.67578125 11.77734375 C20.54925681 10.69320096 15.9798637 8.64712927 11.1875 6.5625 C10.22134766 6.15451172 9.25519531 5.74652344 8.25976562 5.32617188 C7.34259766 4.93107422 6.42542969 4.53597656 5.48046875 4.12890625 C4.64410889 3.76869385 3.80774902 3.40848145 2.94604492 3.03735352 C1 2 1 2 0 0 Z " fill="#B2280D" transform="translate(79,85)"/>
<path d="M0 0 C-0.66 0.66 -1.32 1.32 -2 2 C2.99203661 3.28340557 7.99284627 3.22504217 13.11328125 3.31640625 C14.56760811 3.3475779 14.56760811 3.3475779 16.05131531 3.37937927 C19.13830707 3.44458941 22.22538152 3.5036268 25.3125 3.5625 C27.40951364 3.60571237 29.50651903 3.64932752 31.60351562 3.69335938 C36.73559307 3.80024151 41.86775341 3.90158896 47 4 C47 4.33 47 4.66 47 5 C40.17824243 5.87909247 33.50073635 6.1929778 26.625 6.1875 C25.01915039 6.1862915 25.01915039 6.1862915 23.38085938 6.18505859 C15.0644635 6.12366077 6.79430784 5.72202106 -1.5 5.125 C-3.1713501 5.00741333 -3.1713501 5.00741333 -4.87646484 4.88745117 C-11.09034227 4.39564102 -16.95165367 3.51208658 -23 2 C-23 1.67 -23 1.34 -23 1 C-20.10425766 0.83160792 -17.20842326 0.66522615 -14.3125 0.5 C-13.08756836 0.42845703 -13.08756836 0.42845703 -11.83789062 0.35546875 C-7.88646942 0.13150156 -3.95981243 -0.06451833 0 0 Z " fill="#4A641C" transform="translate(176,91)"/>
<path d="M0 0 C0.99 0.33 1.98 0.66 3 1 C3 10.57 3 20.14 3 30 C1.68 30 0.36 30 -1 30 C-1.02465746 25.8882744 -1.04283959 21.77657722 -1.05493164 17.66479492 C-1.0599708 16.26504772 -1.06680216 14.8653058 -1.07543945 13.46557617 C-1.0875232 11.45754223 -1.09269807 9.44947043 -1.09765625 7.44140625 C-1.10289307 6.23170166 -1.10812988 5.02199707 -1.11352539 3.77563477 C-1 1 -1 1 0 0 Z " fill="#C1CCCB" transform="translate(168,44)"/>
<path d="M0 0 C0.99 0.66 1.98 1.32 3 2 C2.01 3.485 2.01 3.485 1 5 C0.67916979 8.16832913 0.67916979 8.16832913 0.69140625 11.78515625 C0.66626009 13.13346812 0.64086187 14.48177531 0.61523438 15.83007812 C0.58642035 17.9522189 0.56239624 20.07427883 0.54370117 22.1965332 C0.52210895 24.24731952 0.48269427 26.29718603 0.44140625 28.34765625 C0.42795166 29.57492432 0.41449707 30.80219238 0.40063477 32.06665039 C0.26842529 33.03465576 0.13621582 34.00266113 0 35 C-0.99 35.66 -1.98 36.32 -3 37 C-3.33 29.08 -3.66 21.16 -4 13 C-4.66 13 -5.32 13 -6 13 C-4.31326082 8.50202887 -2.18326108 4.27113698 0 0 Z " fill="#557A2E" transform="translate(130,37)"/>
<path d="M0 0 C2.65868909 1.77245939 3.59886916 2.77422056 4.625 5.75 C3.965 5.75 3.305 5.75 2.625 5.75 C2.0475 5.1003125 1.47 4.450625 0.875 3.78125 C-2.00645327 1.17993802 -3.54480153 1.21169802 -7.375 1.25 C-8.40625 1.2396875 -9.4375 1.229375 -10.5 1.21875 C-14.1112529 1.88604673 -15.26023896 2.7656176 -17.375 5.75 C-18.06897449 8.78222778 -18.06897449 8.78222778 -18.125 12 C-18.18171875 13.07765625 -18.2384375 14.1553125 -18.296875 15.265625 C-18.32265625 16.08546875 -18.3484375 16.9053125 -18.375 17.75 C-15.405 17.75 -12.435 17.75 -9.375 17.75 C-9.375 14.45 -9.375 11.15 -9.375 7.75 C-8.055 7.75 -6.735 7.75 -5.375 7.75 C-4.94155518 12.95133779 -4.94155518 12.95133779 -5.375 15.75 C-8.05639167 18.65484097 -10.45197771 20.16881151 -14.375 20.75 C-14.375 20.42 -14.375 20.09 -14.375 19.75 C-16.025 19.42 -17.675 19.09 -19.375 18.75 C-20.13527167 6.26464975 -20.13527167 6.26464975 -18.3671875 2.7421875 C-13.29384753 -2.33115247 -6.33330165 -2.34566728 0 0 Z " fill="#E3E9E8" transform="translate(269.375,37.25)"/>
<path d="M0 0 C0.99 0.33 1.98 0.66 3 1 C3 12.88 3 24.76 3 37 C2.01 36.67 1.02 36.34 0 36 C0 24.12 0 12.24 0 0 Z " fill="#B5C2B8" transform="translate(220,45)"/>
<path d="M0 0 C1.81242052 -0.02687279 3.62495233 -0.04633715 5.4375 -0.0625 C6.44683594 -0.07410156 7.45617187 -0.08570312 8.49609375 -0.09765625 C11 0 11 0 12 1 C12.04092937 3.33297433 12.04241723 5.66705225 12 8 C13.65 8.33 15.3 8.66 17 9 C17.09765625 15.15234375 17.09765625 15.15234375 17 17 C16.67 17.33 16.34 17.66 16 18 C14.35 18 12.7 18 11 18 C11 26.58 11 35.16 11 44 C10.67 44 10.34 44 10 44 C10 34.76 10 25.52 10 16 C11.65 16 13.3 16 15 16 C15 14.02 15 12.04 15 10 C13.35 10 11.7 10 10 10 C10 7.36 10 4.72 10 2 C7.03 2 4.06 2 1 2 C1 4.64 1 7.28 1 10 C0.67 10 0.34 10 0 10 C0 6.7 0 3.4 0 0 Z " fill="#D2DBE4" transform="translate(307,28)"/>
<path d="M0 0 C1 2 1 2 0.2578125 4.50390625 C-0.11601563 5.51324219 -0.48984375 6.52257813 -0.875 7.5625 C-2.70993622 12.80788665 -3.63125332 17.46879982 -4 23 C-7.057952 21.26440562 -9.63379989 19.61527381 -12 17 C-10.53416665 12.45928635 -7.95468267 9.23733031 -4.875 5.6875 C-4.40707031 5.13771484 -3.93914062 4.58792969 -3.45703125 4.02148438 C-2.31047517 2.67603591 -1.15602549 1.337321 0 0 Z " fill="#4D7922" transform="translate(102,51)"/>
<path d="M0 0 C0.66 0 1.32 0 2 0 C-0.47648567 6.67679961 -3.88902026 14.13341216 -10.125 17.875 C-11.548125 18.431875 -11.548125 18.431875 -13 19 C-14.299375 20.299375 -14.299375 20.299375 -15.625 21.625 C-18.89285714 24.89285714 -18.89285714 24.89285714 -22 25 C-22.66 24.34 -23.32 23.68 -24 23 C-23.113125 22.608125 -22.22625 22.21625 -21.3125 21.8125 C-17.82220514 19.90271602 -15.69570041 17.90306198 -13 15 C-12.154375 14.195625 -11.30875 13.39125 -10.4375 12.5625 C-7.86883248 10.01249767 -7.86883248 10.01249767 -5.8125 6.6875 C-5.214375 5.800625 -4.61625 4.91375 -4 4 C-3.34 4 -2.68 4 -2 4 C-1.34 2.68 -0.68 1.36 0 0 Z " fill="#C63B10" transform="translate(45,79)"/>
<path d="M0 0 C0.33 0 0.66 0 1 0 C1.6520535 5.93463181 -0.53122357 9.72214215 -3.3125 14.75 C-3.71662109 15.51699219 -4.12074219 16.28398437 -4.53710938 17.07421875 C-7.59283783 22.72855855 -7.59283783 22.72855855 -11 25 C-11.33 24.67 -11.66 24.34 -12 24 C-13.485 26.475 -13.485 26.475 -15 29 C-15.33 28.34 -15.66 27.68 -16 27 C-15.33496094 25.35180664 -15.33496094 25.35180664 -14.234375 23.41015625 C-13.83863281 22.70826172 -13.44289063 22.00636719 -13.03515625 21.28320312 C-12.61105469 20.55037109 -12.18695313 19.81753906 -11.75 19.0625 C-11.34136719 18.33353516 -10.93273437 17.60457031 -10.51171875 16.85351562 C-8.58146928 13.46782081 -6.79668527 10.72933555 -4 8 C-2.80400932 5.96767758 -2.80400932 5.96767758 -1.8125 3.8125 C-1.46832031 3.09707031 -1.12414062 2.38164062 -0.76953125 1.64453125 C-0.51558594 1.10183594 -0.26164063 0.55914062 0 0 Z " fill="#F28358" transform="translate(140,13)"/>
<path d="M0 0 C0.33 0 0.66 0 1 0 C1 9.57 1 19.14 1 29 C0.67 29 0.34 29 0 29 C0 25.37 0 21.74 0 18 C-3.3 18 -6.6 18 -10 18 C-10 21.3 -10 24.6 -10 28 C-11.32 28 -12.64 28 -14 28 C-14 24.37 -14 20.74 -14 17 C-9.38 17 -4.76 17 0 17 C0 11.39 0 5.78 0 0 Z " fill="#F7F7F3" transform="translate(154,46)"/>
<path d="M0 0 C0.33 0 0.66 0 1 0 C1.01981934 1.04978027 1.03963867 2.09956055 1.06005859 3.18115234 C1.13602198 7.06893261 1.22475298 10.95633403 1.31738281 14.84375 C1.35571104 16.52759329 1.39055712 18.21151955 1.421875 19.89550781 C1.46744287 22.31345306 1.52544923 24.73082528 1.5859375 27.1484375 C1.60326431 28.28132706 1.60326431 28.28132706 1.62094116 29.43710327 C1.60330066 33.67825198 1.60330066 33.67825198 4 37 C6.44012949 37.24287489 6.44012949 37.24287489 9.125 37.125 C10.03507813 37.10695312 10.94515625 37.08890625 11.8828125 37.0703125 C12.58148438 37.04710937 13.28015625 37.02390625 14 37 C13.34 38.32 12.68 39.64 12 41 C8.7 41 5.4 41 2 41 C-0.91393612 36.15787072 -1.35463691 32.27206048 -1.07421875 26.7578125 C-1.04777786 25.98944061 -1.02133698 25.22106873 -0.99409485 24.42941284 C-0.90686076 21.9937701 -0.7975338 19.55970849 -0.6875 17.125 C-0.62418583 15.46620111 -0.5623217 13.8073462 -0.50195312 12.1484375 C-0.35140637 8.09811742 -0.18105067 4.04906655 0 0 Z " fill="#ACBED5" transform="translate(157,43)"/>
<path d="M0 0 C0.33 0 0.66 0 1 0 C1.33 3.3 1.66 6.6 2 10 C3.299375 10.12375 4.59875 10.2475 5.9375 10.375 C8.15234375 10.5859375 8.15234375 10.5859375 10 11 C10.33 11.66 10.66 12.32 11 13 C8.03 13 5.06 13 2 13 C2.33 20.26 2.66 27.52 3 35 C1.515 35.495 1.515 35.495 0 36 C0 24.12 0 12.24 0 0 Z " fill="#638B3D" transform="translate(288,46)"/>
<path d="M0 0 C5.95205301 1.83972548 11.64256996 4.07850439 17.375 6.5 C23.13860471 8.92983532 28.78561042 10.98460674 34.8984375 12.39453125 C37 13 37 13 40 15 C37.03 15 34.06 15 31 15 C31 14.34 31 13.68 31 13 C30.01 13.33 29.02 13.66 28 14 C28 13.34 28 12.68 28 12 C27.23300781 11.92652344 26.46601562 11.85304688 25.67578125 11.77734375 C20.54925681 10.69320096 15.9798637 8.64712927 11.1875 6.5625 C10.22134766 6.15451172 9.25519531 5.74652344 8.25976562 5.32617188 C7.34259766 4.93107422 6.42542969 4.53597656 5.48046875 4.12890625 C4.64410889 3.76869385 3.80774902 3.40848145 2.94604492 3.03735352 C1 2 1 2 0 0 Z " fill="#473A13" transform="translate(79,85)"/>
<path d="M0 0 C0.99 0 1.98 0 3 0 C1.42686828 4.72843614 -1.20641235 8.3433843 -4.125 12.3125 C-4.59292969 12.95767578 -5.06085938 13.60285156 -5.54296875 14.26757812 C-6.6905929 15.84848894 -7.84465477 17.42472301 -9 19 C-9.66 18.01 -10.32 17.02 -11 16 C-9.35555496 13.5199023 -7.70951649 11.04088908 -6.0625 8.5625 C-5.59392578 7.85544922 -5.12535156 7.14839844 -4.64257812 6.41992188 C-4.19462891 5.74638672 -3.74667969 5.07285156 -3.28515625 4.37890625 C-2.87144775 3.7557251 -2.45773926 3.13254395 -2.03149414 2.49047852 C-1 1 -1 1 0 0 Z " fill="#F15312" transform="translate(93,57)"/>
<path d="M0 0 C-1.12451727 2.9719385 -2.22293791 5.33440687 -4 8 C-4.598125 8.268125 -5.19625 8.53625 -5.8125 8.8125 C-10.83259874 11.53769646 -13.97232684 17.29028619 -17 22 C-17.33 21.34 -17.66 20.68 -18 20 C-16.7888208 17.21241165 -15.05403552 14.6941774 -13.4375 12.125 C-13.00630859 11.40441406 -12.57511719 10.68382813 -12.13085938 9.94140625 C-9.36372436 5.50254565 -5.84229324 0 0 0 Z " fill="#EF9E80" transform="translate(52,71)"/>
<path d="M0 0 C0.66 0.33 1.32 0.66 2 1 C0.59601721 5.10110762 -1.37087038 7.98089159 -4.125 11.3125 C-4.84945312 12.19550781 -5.57390625 13.07851563 -6.3203125 13.98828125 C-6.87460938 14.65214844 -7.42890625 15.31601562 -8 16 C-8.99 15.34 -9.98 14.68 -11 14 C-10.38125 13.278125 -9.7625 12.55625 -9.125 11.8125 C-6.92770602 9.18889335 -6.92770602 9.18889335 -6.0625 6.4375 C-4.69340855 3.29664314 -2.75572848 1.9580176 0 0 Z " fill="#F56731" transform="translate(73,37)"/>
<path d="M0 0 C0.99 0 1.98 0 3 0 C2.69723124 6.05537521 -0.27754038 9.51483458 -4 14 C-4.66 13.01 -5.32 12.02 -6 11 C-6.99 11.66 -7.98 12.32 -9 13 C-7.51804579 9.78541276 -5.70259491 7.06664104 -3.5625 4.25 C-2.96566406 3.45078125 -2.36882812 2.6515625 -1.75390625 1.828125 C-1.17511719 1.22484375 -0.59632812 0.6215625 0 0 Z " fill="#F37142" transform="translate(79,27)"/>
<path d="M0 0 C3.58685279 1.7934264 4.16210521 6.40228696 5.48828125 10.01953125 C7.19668381 13.38777713 8.88614599 14.91263729 12 17 C14.18214568 17.77833534 14.18214568 17.77833534 16 18 C16 18.33 16 18.66 16 19 C11.87975908 19.40394519 9.72973597 19.52608872 6.3125 17.0625 C2.56928228 12.10526572 -0.8293457 6.4274292 0 0 Z " fill="#050003" transform="translate(12,91)"/>
<path d="M0 0 C0 0.66 0 1.32 0 2 C1.98 1.34 3.96 0.68 6 0 C2.51449263 3.84846561 -1.86912265 5.56873979 -6.5 7.75 C-7.36753906 8.17410156 -8.23507812 8.59820312 -9.12890625 9.03515625 C-9.96292969 9.43089844 -10.79695313 9.82664062 -11.65625 10.234375 C-12.79803711 10.77916504 -12.79803711 10.77916504 -13.96289062 11.33496094 C-16 12 -16 12 -19 11 C-16.87717331 9.99539469 -14.75166979 8.99644398 -12.625 8 C-10.84996094 7.1646875 -10.84996094 7.1646875 -9.0390625 6.3125 C-6 5 -6 5 -4 5 C-4 4.34 -4 3.68 -4 3 C-6.31 2.67 -8.62 2.34 -11 2 C-11 1.67 -11 1.34 -11 1 C-3.375 0 -3.375 0 0 0 Z " fill="#A68A2B" transform="translate(324,82)"/>
<path d="M0 0 C0.33 1.32 0.66 2.64 1 4 C-3.21345498 7.11713854 -6.7410905 7.37676791 -11.8125 7.1875 C-12.85180664 7.16719727 -12.85180664 7.16719727 -13.91210938 7.14648438 C-15.60841265 7.11138845 -17.30431136 7.05758943 -19 7 C-19 5.02 -19 3.04 -19 1 C-15.7 1 -12.4 1 -9 1 C-9 1.33 -9 1.66 -9 2 C-10.134375 2.12375 -11.26875 2.2475 -12.4375 2.375 C-14.2009375 2.684375 -14.2009375 2.684375 -16 3 C-16.33 3.66 -16.66 4.32 -17 5 C-14.53901884 4.94012211 -12.08421588 4.85321526 -9.625 4.75 C-8.92632812 4.73582031 -8.22765625 4.72164063 -7.5078125 4.70703125 C-5.22282354 4.63964218 -5.22282354 4.63964218 -2 4 C-0.43516506 2.08611659 -0.43516506 2.08611659 0 0 Z " fill="#436598" transform="translate(178,83)"/>
<path d="M0 0 C0.66 0 1.32 0 2 0 C2.24234375 0.66386719 2.4846875 1.32773438 2.734375 2.01171875 C5.65282879 10.32231647 5.65282879 10.32231647 12 16 C12 16.66 12 17.32 12 18 C8.25833201 17.14962091 6.34472409 16.38302676 3.75 13.5 C1.54718923 9.09437847 0.72727796 4.84214013 0 0 Z " fill="#060103" transform="translate(52,88)"/>
<path d="M0 0 C0.99 0 1.98 0 3 0 C3 3.96 3 7.92 3 12 C1.68 12 0.36 12 -1 12 C-1.02687279 10.18757948 -1.04633715 8.37504767 -1.0625 6.5625 C-1.07410156 5.55316406 -1.08570313 4.54382813 -1.09765625 3.50390625 C-1 1 -1 1 0 0 Z " fill="#C2CDCF" transform="translate(261,62)"/>
<path d="M0 0 C0.33 0 0.66 0 1 0 C0.57302324 8.68186084 -2.17720973 15.7658146 -7 23 C-7.66 22.67 -8.32 22.34 -9 22 C-8.51789063 20.91460937 -8.03578125 19.82921875 -7.5390625 18.7109375 C-6.90090015 17.26568748 -6.26288723 15.82037147 -5.625 14.375 C-5.30789062 13.66214844 -4.99078125 12.94929688 -4.6640625 12.21484375 C-2.89403488 8.19540604 -1.31133626 4.19892519 0 0 Z " fill="#F25415" transform="translate(99,21)"/>
<path d="M0 0 C0 0.99 0 1.98 0 3 C-0.680625 3.639375 -1.36125 4.27875 -2.0625 4.9375 C-2.701875 5.618125 -3.34125 6.29875 -4 7 C-3.59070014 9.05396726 -3.59070014 9.05396726 -3 11 C-4.0625 12.6875 -4.0625 12.6875 -6 14 C-9.1875 14.6875 -9.1875 14.6875 -12 15 C-10.38462556 11.10082032 -7.72075127 8.28706228 -4.875 5.25 C-4.40707031 4.74339844 -3.93914062 4.23679687 -3.45703125 3.71484375 C-2.30873459 2.47280859 -1.15491328 1.23588506 0 0 Z " fill="#F69571" transform="translate(109,36)"/>
<path d="M0 0 C0.99 0.33 1.98 0.66 3 1 C3 4.63 3 8.26 3 12 C1.68 12 0.36 12 -1 12 C-1.02687279 10.18757948 -1.04633715 8.37504767 -1.0625 6.5625 C-1.07410156 5.55316406 -1.08570313 4.54382812 -1.09765625 3.50390625 C-1 1 -1 1 0 0 Z " fill="#BFCCCF" transform="translate(141,44)"/>
<path d="M0 0 C0.93423645 3.01031744 1.04449911 3.86650268 0 7 C-1.33317206 7.33397775 -2.66652079 7.66725071 -4 8 C-5.44326345 9.48067473 -5.44326345 9.48067473 -6.578125 11.37890625 C-7.01640625 12.05244141 -7.4546875 12.72597656 -7.90625 13.41992188 C-8.3496875 14.12697266 -8.793125 14.83402344 -9.25 15.5625 C-9.93835938 16.62887695 -9.93835938 16.62887695 -10.640625 17.71679688 C-11.77093497 19.47113214 -12.88687103 21.23471341 -14 23 C-14.33 22.34 -14.66 21.68 -15 21 C-13.44190237 18.62201021 -11.87870873 16.24763961 -10.3125 13.875 C-9.87744141 13.20984375 -9.44238281 12.5446875 -8.99414062 11.859375 C-6.22270072 7.67142137 -3.2847523 3.79965942 0 0 Z " fill="#F7BEA8" transform="translate(96,51)"/>
<path d="M0 0 C0.33 0 0.66 0 1 0 C1 4.62 1 9.24 1 14 C2.98 14 4.96 14 7 14 C6.02471263 15.33617352 5.04466681 16.6688751 4.0625 18 C3.24458984 19.11375 3.24458984 19.11375 2.41015625 20.25 C1.94480469 20.8275 1.47945312 21.405 1 22 C0.67 22 0.34 22 0 22 C0 14.74 0 7.48 0 0 Z " fill="#316108" transform="translate(182,42)"/>
<path d="M0 0 C1.13311141 3.01025379 1.93868176 5.77057295 2 9 C0.4261653 11.82063882 -1.5836058 13.87712261 -4 16 C-4.66 15.67 -5.32 15.34 -6 15 C-5.34 14.29875 -4.68 13.5975 -4 12.875 C-1.69766797 9.56539771 -1.63369844 7.93774177 -2 4 C-3.65 4.66 -5.3 5.32 -7 6 C-7 5.34 -7 4.68 -7 4 C-1.47058824 0 -1.47058824 0 0 0 Z " fill="#DD6938" transform="translate(130,72)"/>
<path d="M0 0 C-1.08760541 5.70992843 -3.77513112 7.74430808 -8.3203125 10.8984375 C-9.15175781 11.44371094 -9.15175781 11.44371094 -10 12 C-10.66 11.67 -11.32 11.34 -12 11 C-10.71284028 9.35063952 -9.42012981 7.70560953 -8.125 6.0625 C-7.04605469 4.68771484 -7.04605469 4.68771484 -5.9453125 3.28515625 C-3.90449584 0.88781137 -3.13983981 0 0 0 Z " fill="#AC240A" transform="translate(78,86)"/>
<path d="M0 0 C2.22922955 2.22922955 2.88128953 4.09135278 4 7 C5.73956658 8.73956658 8.1936622 8.37190386 10.5625 8.5625 C11.57441406 8.64628906 12.58632813 8.73007813 13.62890625 8.81640625 C14.41136719 8.87699219 15.19382812 8.93757813 16 9 C16 9.33 16 9.66 16 10 C13.70839681 10.02692484 11.41670454 10.04636124 9.125 10.0625 C7.84882813 10.07410156 6.57265625 10.08570312 5.2578125 10.09765625 C2 10 2 10 0 9 C-0.6328125 7.15234375 -0.6328125 7.15234375 -1.125 4.9375 C-1.29257812 4.20402344 -1.46015625 3.47054687 -1.6328125 2.71484375 C-1.75398438 2.14894531 -1.87515625 1.58304687 -2 1 C-1.34 0.67 -0.68 0.34 0 0 Z " fill="#CBAB3B" transform="translate(305,73)"/>
<path d="M0 0 C0.99 0.33 1.98 0.66 3 1 C3.390625 6.95703125 3.390625 6.95703125 3 9 C0.984375 10.76171875 0.984375 10.76171875 -1 12 C-1.02687279 10.18757948 -1.04633715 8.37504767 -1.0625 6.5625 C-1.07410156 5.55316406 -1.08570313 4.54382812 -1.09765625 3.50390625 C-1 1 -1 1 0 0 Z " fill="#C6D1D7" transform="translate(261,44)"/>
<path d="M0 0 C0.33 0.66 0.66 1.32 1 2 C-0.07518118 4.44332726 -1.19808566 6.76754523 -2.4375 9.125 C-2.77587891 9.78371094 -3.11425781 10.44242188 -3.46289062 11.12109375 C-4.30149926 12.75106547 -5.14984811 14.37601909 -6 16 C-6.33 15.01 -6.66 14.02 -7 13 C-7.66 12.67 -8.32 12.34 -9 12 C-6.03 8.04 -3.06 4.08 0 0 Z " fill="#DDB037" transform="translate(79,34)"/>
<path d="M0 0 C0.66 0.33 1.32 0.66 2 1 C1.67 1.66 1.34 2.32 1 3 C1.66 3 2.32 3 3 3 C3.33 3.99 3.66 4.98 4 6 C3.34 6.66 2.68 7.32 2 8 C1.67 7.01 1.34 6.02 1 5 C-0.65 7.64 -2.3 10.28 -4 13 C-5 11 -5 11 -4.51171875 9.16015625 C-4.23972656 8.46792969 -3.96773438 7.77570313 -3.6875 7.0625 C-3.42324219 6.37285156 -3.15898438 5.68320313 -2.88671875 4.97265625 C-2 3 -2 3 0 0 Z " fill="#EE8B64" transform="translate(80,71)"/>
<path d="M0 0 C0.66 0 1.32 0 2 0 C2 3.96 2 7.92 2 12 C1.01 12 0.02 12 -1 12 C-1.02687279 10.18757948 -1.04633715 8.37504767 -1.0625 6.5625 C-1.07410156 5.55316406 -1.08570313 4.54382813 -1.09765625 3.50390625 C-1 1 -1 1 0 0 Z " fill="#D8DDD1" transform="translate(195,62)"/>
<path d="M0 0 C1.77706209 2.66559313 2.87548273 5.0280615 4 8 C5.98 8 7.96 8 10 8 C10.33 8.66 10.66 9.32 11 10 C6.545 10.495 6.545 10.495 2 11 C-0.67927341 6.98108988 -0.15601248 4.75838077 0 0 Z " fill="#060101" transform="translate(0,49)"/>
<path d="M0 0 C0.33 0.66 0.66 1.32 1 2 C0.23587913 3.12956998 -0.53659803 4.25348978 -1.3125 5.375 C-1.74175781 6.00148438 -2.17101563 6.62796875 -2.61328125 7.2734375 C-4 9 -4 9 -7 11 C-9.6875 10.625 -9.6875 10.625 -12 10 C-11.01 9.34 -10.02 8.68 -9 8 C-7.80731203 7.19513485 -6.61996594 6.382309 -5.4375 5.5625 C-4.53837891 4.94568359 -4.53837891 4.94568359 -3.62109375 4.31640625 C-1.726571 2.91077886 -1.726571 2.91077886 0 0 Z " fill="#EB9678" transform="translate(33,93)"/>
<path d="M0 0 C1.96373395 2.94560093 3.49430475 5.89143197 5.0625 9.0625 C5.58972656 10.12597656 6.11695312 11.18945312 6.66015625 12.28515625 C7.10230469 13.18105469 7.54445313 14.07695313 8 15 C8.33 15.66 8.66 16.32 9 17 C6.69 16.34 4.38 15.68 2 15 C2.33 14.01 2.66 13.02 3 12 C2.46832218 10.04651417 2.46832218 10.04651417 1.5625 8.0625 C0.21847257 4.93447202 0 3.60334675 0 0 Z " fill="#BF9A30" transform="translate(98,79)"/>
<path d="M0 0 C0.33 0.66 0.66 1.32 1 2 C-0.07218761 3.63237552 -1.15821244 5.25566803 -2.25 6.875 C-3.15492187 8.23238281 -3.15492187 8.23238281 -4.078125 9.6171875 C-5.96990937 11.96269251 -7.22728914 12.932629 -10 14 C-9.401875 13.319375 -8.80375 12.63875 -8.1875 11.9375 C-6.42295971 9.56797447 -5.48356571 7.97217771 -4.4375 5.3125 C-3 2 -3 2 0 0 Z " fill="#F3B39A" transform="translate(74,84)"/>
<path d="M0 0 C0.66 0 1.32 0 2 0 C2 3.3 2 6.6 2 10 C1.01 10.33 0.02 10.66 -1 11 C-1.02688151 9.35425434 -1.04634123 7.70838587 -1.0625 6.0625 C-1.07410156 5.14597656 -1.08570313 4.22945312 -1.09765625 3.28515625 C-1 1 -1 1 0 0 Z " fill="#D7DDD7" transform="translate(195,44)"/>
<path d="M0 0 C0.66 0 1.32 0 2 0 C2.31563182 5.26053037 1.66590937 8.44573816 -1 13 C-1.66 13 -2.32 13 -3 13 C-2.01 8.71 -1.02 4.42 0 0 Z " fill="#EB5019" transform="translate(59,26)"/>
<path d="M0 0 C0.99 0.33 1.98 0.66 3 1 C3.042721 2.66611905 3.04063832 4.33382885 3 6 C2.67 6.33 2.34 6.66 2 7 C2.33 7 2.66 7 3 7 C3 8.65 3 10.3 3 12 C2.01 11.67 1.02 11.34 0 11 C0 7.37 0 3.74 0 0 Z " fill="#BDB0B9" transform="translate(140,63)"/>
<path d="M0 0 C0 3.51716303 -0.82445585 4.37121748 -3 7 C-2.01 8.485 -2.01 8.485 -1 10 C-1.94875 10.309375 -2.8975 10.61875 -3.875 10.9375 C-6.86080408 11.87394742 -6.86080408 11.87394742 -9 13 C-7.50923566 9.7173068 -5.61379679 7.06922559 -3.375 4.25 C-2.74335937 3.45078125 -2.11171875 2.6515625 -1.4609375 1.828125 C-0.97882813 1.22484375 -0.49671875 0.6215625 0 0 Z " fill="#F5AF95" transform="translate(66,44)"/>
<path d="M0 0 C6.30367803 0.58367389 11.98660063 2.04071619 18 4 C14.90226756 4.84062397 12.21667249 5.08935201 9 5 C9 4.34 9 3.68 9 3 C8.01 3.33 7.02 3.66 6 4 C6 3.34 6 2.68 6 2 C3.03 1.505 3.03 1.505 0 1 C0 0.67 0 0.34 0 0 Z " fill="#2B200B" transform="translate(101,95)"/>
<path d="M0 0 C0.66 0.33 1.32 0.66 2 1 C-3.04615385 6.78461538 -3.04615385 6.78461538 -7.875 7.875 C-9.421875 7.936875 -9.421875 7.936875 -11 8 C-11 7.34 -11 6.68 -11 6 C-10.28972656 5.65066406 -9.57945313 5.30132812 -8.84765625 4.94140625 C-7.92855469 4.48636719 -7.00945312 4.03132813 -6.0625 3.5625 C-4.68771484 2.88380859 -4.68771484 2.88380859 -3.28515625 2.19140625 C-1.09471096 1.19474606 -1.09471096 1.19474606 0 0 Z " fill="#D5AD36" transform="translate(127,91)"/>
<path d="M0 0 C0.33 0.99 0.66 1.98 1 3 C1.66 3 2.32 3 3 3 C1.84826645 5.46800047 0.95216435 7.04783565 -1 9 C-1.33 8.01 -1.66 7.02 -2 6 C-2.99 6.66 -3.98 7.32 -5 8 C-3.62845496 5.04590299 -2.01136276 2.55991624 0 0 Z " fill="#F48F69" transform="translate(75,32)"/>
<path d="M0 0 C-4.97504047 3.24900602 -7.88225104 4.49940808 -14 4 C-14 3.67 -14 3.34 -14 3 C-13.0925 2.71125 -12.185 2.4225 -11.25 2.125 C-8.11697634 1.14690572 -8.11697634 1.14690572 -5.875 -0.1875 C-3.52437854 -1.20610263 -2.36651218 -0.84518292 0 0 Z " fill="#F28B61" transform="translate(124,89)"/>
<path d="M0 0 C0.99 0.33 1.98 0.66 3 1 C3 1.99 3 2.98 3 4 C0 6 0 6 -2.1875 5.625 C-2.785625 5.41875 -3.38375 5.2125 -4 5 C-3 2 -3 2 0 0 Z " fill="#C03411" transform="translate(124,88)"/>
<path d="M0 0 C1.32 0.66 2.64 1.32 4 2 C2.35 3.98 0.7 5.96 -1 8 C-1.33 7.34 -1.66 6.68 -2 6 C-2.66 5.67 -3.32 5.34 -4 5 C-2.68 3.35 -1.36 1.7 0 0 Z " fill="#EF5213" transform="translate(99,49)"/>
<path d="M0 0 C0.66 0 1.32 0 2 0 C1.64950425 3.24208567 1.43778819 4.61527704 -1.0625 6.8125 C-1.701875 7.204375 -2.34125 7.59625 -3 8 C-3.66 7.34 -4.32 6.68 -5 6 C-3.38405168 3.95880212 -1.7143618 1.95927063 0 0 Z " fill="#F54E11" transform="translate(67,45)"/>
<path d="M0 0 C0.33 0 0.66 0 1 0 C1.34833144 4.87664009 0.41685712 7.77050005 -2 12 C-3.1171875 10.265625 -3.1171875 10.265625 -4 8 C-3.3203125 5.859375 -3.3203125 5.859375 -2.125 3.75 C-1.73570312 3.04359375 -1.34640625 2.3371875 -0.9453125 1.609375 C-0.63335937 1.07828125 -0.32140625 0.5471875 0 0 Z " fill="#F3672A" transform="translate(140,13)"/>
<path d="M0 0 C0.99 0.33 1.98 0.66 3 1 C1.29374499 3.78388975 0.52373261 4.85384206 -2.6875 5.75 C-3.8321875 5.87375 -3.8321875 5.87375 -5 6 C-2.25 1.125 -2.25 1.125 0 0 Z " fill="#AF2A0F" transform="translate(38,90)"/>
<path d="M0 0 C-0.33 0.99 -0.66 1.98 -1 3 C-3.97 3 -6.94 3 -10 3 C-10 2.34 -10 1.68 -10 1 C-2.25 0 -2.25 0 0 0 Z " fill="#DFE4ED" transform="translate(171,80)"/>
<path d="M0 0 C0.66 0.33 1.32 0.66 2 1 C0.7934375 2.175625 0.7934375 2.175625 -0.4375 3.375 C-2.98690417 5.71982856 -2.98690417 5.71982856 -4 8 C-4.66 8 -5.32 8 -6 8 C-6.33 6.35 -6.66 4.7 -7 3 C-6.401875 2.87625 -5.80375 2.7525 -5.1875 2.625 C-2.73768652 2.04524015 -2.73768652 2.04524015 0 0 Z " fill="#497820" transform="translate(254,36)"/>
<path d="M0 0 C1.98 0 3.96 0 6 0 C4.35 1.65 2.7 3.3 1 5 C0.67 3.35 0.34 1.7 0 0 Z " fill="#557C31" transform="translate(183,56)"/>
<path d="M0 0 C-0.66 1.65 -1.32 3.3 -2 5 C-3.32 4.67 -4.64 4.34 -6 4 C-2.25 0 -2.25 0 0 0 Z " fill="#C23711" transform="translate(78,86)"/>
<path d="M0 0 C-1.07401108 2.91517292 -1.77810176 4.77810176 -4 7 C-4.66 5.68 -5.32 4.36 -6 3 C-2.25 0 -2.25 0 0 0 Z " fill="#CE4811" transform="translate(52,71)"/>
<path d="M0 0 C0.66 0 1.32 0 2 0 C0.8141763 3.37503669 -0.27573689 5.64722731 -3 8 C-3.33 7.01 -3.66 6.02 -4 5 C-2.1875 2.3125 -2.1875 2.3125 0 0 Z " fill="#DC4E13" transform="translate(55,63)"/>
<path d="" fill="#000000" transform="translate(0,0)"/>
<path d="" fill="#000000" transform="translate(0,0)"/>
<path d="" fill="#000000" transform="translate(0,0)"/>
<path d="" fill="#000000" transform="translate(0,0)"/>
<path d="" fill="#000000" transform="translate(0,0)"/>
<path d="" fill="#000000" transform="translate(0,0)"/>
<path d="" fill="#000000" transform="translate(0,0)"/>
<path d="" fill="#000000" transform="translate(0,0)"/>
<path d="" fill="#000000" transform="translate(0,0)"/>
<path d="" fill="#000000" transform="translate(0,0)"/>
<path d="" fill="#000000" transform="translate(0,0)"/>
<path d="" fill="#000000" transform="translate(0,0)"/>
<path d="" fill="#000000" transform="translate(0,0)"/>
</svg>
