<?xml version="1.0" encoding="UTF-8"?>
<svg xmlns="http://www.w3.org/2000/svg" xmlns:xlink="http://www.w3.org/1999/xlink" width="2500px" height="1667px" viewBox="0 0 2500 1667" version="1.1">
<g id="surface1">
<path style=" stroke:none;fill-rule:nonzero;fill:rgb(81.176472%,3.921569%,17.254902%);fill-opacity:1;" d="M 1103.738281 883.28125 L 1103.738281 669.496094 L 1155.648438 669.496094 C 1180.6875 669.496094 1200.226562 671.328125 1214.886719 675.605469 C 1230.761719 679.878906 1244.808594 686.597656 1257.023438 696.984375 C 1282.671875 717.140625 1295.496094 743.40625 1295.496094 776.386719 C 1295.496094 809.371094 1282.0625 835.636719 1255.191406 856.40625 C 1241.753906 866.789062 1227.710938 873.507812 1213.054688 877.785156 C 1199.007812 882.058594 1180.074219 883.890625 1154.425781 883.890625 L 1103.738281 883.890625 Z M 1140.992188 853.351562 L 1158.089844 853.351562 C 1175.191406 853.351562 1189.234375 852.128906 1200.226562 848.464844 C 1211.222656 845.410156 1221.601562 839.914062 1230.761719 833.195312 C 1249.082031 818.535156 1258.246094 799.601562 1258.246094 776.386719 C 1258.246094 753.175781 1249.082031 734.242188 1230.761719 719.582031 C 1214.273438 706.753906 1189.847656 700.035156 1158.089844 700.035156 L 1140.992188 700.035156 Z M 1370.613281 670.105469 L 1370.613281 798.988281 C 1370.613281 817.3125 1374.277344 830.75 1380.992188 839.304688 C 1391.375 851.519531 1406.03125 857.628906 1424.964844 857.628906 C 1443.894531 857.628906 1458.550781 851.519531 1468.933594 839.304688 C 1475.652344 831.363281 1479.316406 817.925781 1479.316406 798.988281 L 1479.316406 670.105469 L 1516.566406 670.105469 L 1516.566406 807.539062 C 1516.566406 830.140625 1508.628906 848.464844 1492.140625 863.125 C 1473.820312 879.617188 1451.222656 887.558594 1424.351562 887.558594 C 1397.484375 887.558594 1374.886719 879.617188 1357.175781 863.125 C 1340.6875 848.464844 1332.75 830.140625 1332.75 807.539062 L 1332.75 670.105469 Z M 1591.683594 670.105469 L 1591.683594 853.351562 L 1678.402344 853.351562 L 1678.402344 883.890625 L 1553.820312 883.890625 L 1553.820312 670.105469 Z M 1753.519531 670.105469 L 1753.519531 853.351562 L 1840.234375 853.351562 L 1840.234375 883.890625 L 1715.65625 883.890625 L 1715.65625 670.105469 Z M 2014.285156 700.035156 L 1914.742188 700.035156 L 1914.742188 751.34375 L 2011.230469 751.34375 L 2011.230469 781.886719 L 1914.742188 781.886719 L 1914.742188 853.351562 L 2014.285156 853.351562 L 2014.285156 883.890625 L 1876.878906 883.890625 L 1876.878906 670.105469 L 2014.285156 670.105469 Z M 2204.820312 701.257812 L 2174.285156 716.527344 C 2168.789062 707.976562 2163.292969 702.480469 2157.796875 700.035156 C 2152.300781 696.984375 2145.582031 695.761719 2137.035156 695.761719 C 2126.652344 695.761719 2118.101562 698.203125 2111.382812 703.089844 C 2104.667969 707.976562 2101.003906 714.085938 2101.003906 722.027344 C 2101.003906 732.410156 2110.164062 740.960938 2127.875 747.070312 L 2152.910156 755.621094 C 2173.066406 762.339844 2187.722656 771.503906 2196.882812 781.273438 C 2206.042969 791.660156 2210.929688 803.875 2210.929688 818.535156 C 2210.929688 838.082031 2202.988281 854.574219 2188.332031 867.398438 C 2173.066406 880.226562 2154.132812 886.945312 2130.925781 886.945312 C 2109.550781 886.945312 2091.230469 881.449219 2077.1875 870.453125 C 2063.140625 859.460938 2054.589844 844.1875 2051.535156 824.03125 L 2089.398438 816.703125 C 2091.230469 829.53125 2094.285156 838.082031 2098.558594 842.96875 C 2106.5 852.128906 2117.492188 857.015625 2132.148438 857.015625 C 2143.75 857.015625 2153.523438 853.351562 2161.460938 847.242188 C 2169.402344 840.523438 2173.066406 831.972656 2173.066406 821.589844 C 2173.066406 817.3125 2172.453125 813.648438 2171.234375 809.984375 C 2170.011719 806.320312 2167.570312 803.265625 2165.125 800.210938 C 2162.070312 797.15625 2158.40625 794.714844 2154.132812 792.269531 C 2149.859375 789.828125 2144.363281 787.382812 2138.253906 784.941406 L 2114.4375 776.386719 C 2080.238281 764.171875 2063.140625 745.847656 2063.140625 722.027344 C 2063.140625 706.144531 2070.46875 692.707031 2084.515625 681.710938 C 2098.558594 670.71875 2116.269531 665.21875 2137.644531 665.21875 C 2166.347656 665.832031 2188.332031 677.4375 2204.820312 701.257812 Z M 2204.820312 701.257812 "/>
<path style=" stroke:none;fill-rule:nonzero;fill:rgb(0%,29.019609%,59.215689%);fill-opacity:1;" d="M 1121.449219 936.421875 L 1121.449219 1046.980469 L 1105.570312 1046.980469 L 1105.570312 936.421875 Z M 1153.816406 1046.980469 L 1153.816406 929.09375 L 1230.761719 1013.386719 L 1230.761719 936.421875 L 1246.640625 936.421875 L 1246.640625 1053.699219 L 1169.695312 969.40625 L 1169.695312 1046.980469 Z M 1302.824219 952.304688 L 1302.824219 1046.980469 L 1286.945312 1046.980469 L 1286.945312 952.304688 L 1262.519531 952.304688 L 1262.519531 936.421875 L 1326.640625 936.421875 L 1326.640625 952.304688 Z M 1402.980469 952.304688 L 1360.839844 952.304688 L 1360.839844 978.570312 L 1401.757812 978.570312 L 1401.757812 994.449219 L 1360.839844 994.449219 L 1360.839844 1031.097656 L 1402.980469 1031.097656 L 1402.980469 1046.980469 L 1344.964844 1046.980469 L 1344.964844 936.421875 L 1402.980469 936.421875 Z M 1456.71875 999.949219 L 1489.085938 1046.980469 L 1469.542969 1046.980469 L 1439.621094 1001.78125 L 1436.566406 1001.78125 L 1436.566406 1046.980469 L 1420.6875 1046.980469 L 1420.6875 936.421875 L 1439.621094 936.421875 C 1453.667969 936.421875 1463.4375 939.476562 1469.542969 944.363281 C 1476.261719 950.472656 1479.925781 958.410156 1479.925781 968.796875 C 1479.925781 976.738281 1477.484375 983.457031 1473.820312 988.953125 C 1469.542969 994.449219 1464.046875 998.113281 1456.71875 999.949219 Z M 1437.179688 987.121094 L 1442.0625 987.121094 C 1457.332031 987.121094 1464.660156 981.011719 1464.660156 968.796875 C 1464.660156 957.800781 1457.332031 951.691406 1442.675781 951.691406 L 1437.179688 951.691406 Z M 1504.355469 1046.980469 L 1504.355469 929.09375 L 1581.300781 1013.386719 L 1581.300781 936.421875 L 1597.179688 936.421875 L 1597.179688 1053.699219 L 1520.230469 969.40625 L 1520.230469 1046.980469 Z M 1683.898438 1020.105469 L 1638.707031 1020.105469 L 1627.105469 1046.980469 L 1610.003906 1046.980469 L 1661.914062 929.703125 L 1711.992188 1046.980469 L 1694.890625 1046.980469 Z M 1677.792969 1004.222656 L 1661.914062 966.964844 L 1645.425781 1004.222656 Z M 1743.136719 952.304688 L 1743.136719 1046.980469 L 1727.257812 1046.980469 L 1727.257812 952.304688 L 1702.828125 952.304688 L 1702.828125 936.421875 L 1766.953125 936.421875 L 1766.953125 952.304688 Z M 1801.152344 936.421875 L 1801.152344 1046.980469 L 1785.273438 1046.980469 L 1785.273438 936.421875 Z M 1818.25 991.394531 C 1818.25 976.125 1823.746094 962.6875 1834.738281 951.082031 C 1845.734375 940.085938 1858.558594 934.589844 1873.824219 934.589844 C 1889.09375 934.589844 1901.917969 940.085938 1912.296875 951.691406 C 1923.289062 962.6875 1928.785156 976.738281 1928.785156 992.007812 C 1928.785156 1007.886719 1923.289062 1021.324219 1912.296875 1032.320312 C 1901.304688 1043.316406 1888.480469 1048.8125 1872.601562 1048.8125 C 1859.167969 1048.8125 1846.953125 1043.925781 1835.960938 1034.152344 C 1824.359375 1023.160156 1818.25 1009.109375 1818.25 991.394531 Z M 1834.128906 991.394531 C 1834.128906 1003.613281 1837.792969 1013.386719 1845.734375 1021.324219 C 1853.671875 1029.265625 1862.222656 1032.929688 1872.601562 1032.929688 C 1883.59375 1032.929688 1892.757812 1028.65625 1900.695312 1020.714844 C 1908.023438 1012.773438 1912.296875 1003 1912.296875 991.394531 C 1912.296875 979.789062 1908.632812 970.015625 1901.304688 962.078125 C 1893.976562 954.136719 1884.816406 949.859375 1873.824219 949.859375 C 1862.832031 949.859375 1853.671875 954.136719 1846.34375 962.078125 C 1838.402344 970.015625 1834.128906 979.789062 1834.128906 991.394531 Z M 1945.886719 1046.980469 L 1945.886719 929.09375 L 2022.832031 1013.386719 L 2022.832031 936.421875 L 2038.710938 936.421875 L 2038.710938 1053.699219 L 1961.765625 969.40625 L 1961.765625 1046.980469 Z M 2124.210938 1020.105469 L 2079.019531 1020.105469 L 2067.414062 1046.980469 L 2050.316406 1046.980469 L 2102.222656 929.703125 L 2152.300781 1046.980469 L 2135.203125 1046.980469 Z M 2117.492188 1004.222656 L 2101.613281 966.964844 L 2085.125 1004.222656 Z M 2180.394531 936.421875 L 2180.394531 1031.097656 L 2211.539062 1031.097656 L 2211.539062 1046.980469 L 2164.515625 1046.980469 L 2164.515625 936.421875 Z M 2180.394531 936.421875 "/>
<path style=" stroke:none;fill-rule:nonzero;fill:rgb(81.568629%,12.54902%,18.039216%);fill-opacity:1;" d="M 420.371094 976.125 C 351.972656 890 439.914062 813.648438 539.457031 768.449219 L 540.066406 746.457031 C 405.105469 798.378906 318.996094 907.714844 420.371094 976.125 Z M 861.292969 710.421875 C 851.523438 704.3125 828.316406 691.484375 823.429688 689.042969 C 817.324219 685.988281 802.054688 684.765625 802.054688 684.765625 C 808.773438 689.042969 838.699219 709.808594 838.699219 709.808594 C 785.566406 701.257812 684.800781 704.3125 606.023438 725.691406 L 606.023438 743.40625 C 688.464844 718.359375 763.582031 714.085938 839.308594 717.140625 C 831.980469 719.582031 818.542969 724.46875 814.878906 725.691406 C 814.878906 725.691406 827.09375 726.914062 831.980469 725.691406 C 835.03125 725.078125 846.636719 722.027344 855.796875 719.582031 C 872.894531 721.414062 897.933594 723.859375 906.484375 727.523438 C 904.042969 717.140625 886.332031 715.308594 861.292969 710.421875 Z M 861.292969 710.421875 "/>
<path style=" stroke:none;fill-rule:nonzero;fill:rgb(9.019608%,27.843139%,61.960787%);fill-opacity:1;" d="M 758.085938 1040.871094 C 777.628906 1038.429688 795.949219 1035.375 814.269531 1031.097656 L 865.566406 901.605469 C 772.132812 965.742188 649.382812 987.730469 513.195312 1018.882812 C 574.265625 1043.316406 662.816406 1053.089844 758.085938 1040.871094 Z M 1053.050781 851.519531 C 1048.777344 817.925781 1021.90625 789.828125 980.378906 770.28125 C 972.4375 784.941406 964.5 798.988281 955.949219 811.816406 C 919.917969 880.226562 876.558594 987.121094 869.230469 1017.050781 C 984.042969 980.402344 1060.988281 915.042969 1053.050781 851.519531 Z M 1053.050781 851.519531 "/>
<path style=" stroke:none;fill-rule:nonzero;fill:rgb(9.019608%,27.843139%,61.960787%);fill-opacity:1;" d="M 610.910156 872.285156 L 610.910156 866.179688 C 651.214844 849.074219 825.261719 855.792969 834.421875 864.347656 L 834.421875 877.171875 C 902.820312 841.136719 951.066406 802.652344 979.769531 770.890625 L 980.378906 770.28125 C 930.300781 746.457031 859.460938 733.632812 779.460938 736.6875 C 809.382812 759.285156 828.316406 795.324219 833.8125 817.3125 C 843.582031 818.535156 855.1875 822.199219 855.1875 822.199219 L 844.195312 828.917969 C 847.859375 829.53125 849.691406 829.53125 849.691406 829.53125 L 849.078125 854.574219 C 849.078125 854.574219 799.003906 849.6875 796.558594 851.519531 C 796.558594 852.128906 795.949219 827.695312 795.949219 826.476562 C 801.445312 824.644531 824.039062 826.476562 838.085938 828.308594 C 837.476562 827.695312 836.253906 827.695312 834.421875 827.085938 C 772.742188 807.539062 703.734375 802.652344 630.449219 808.761719 C 665.871094 795.933594 717.78125 794.714844 775.796875 804.484375 C 775.796875 796.546875 763.582031 721.414062 714.117188 722.027344 C 660.375 723.246094 636.558594 782.496094 630.449219 806.320312 C 629.839844 784.328125 633.503906 768.449219 639.609375 756.84375 C 629.230469 759.285156 619.457031 762.339844 609.6875 765.394531 L 608.464844 662.164062 L 579.152344 613.300781 L 546.175781 662.164062 L 533.351562 796.546875 C 461.898438 833.195312 419.148438 882.058594 425.257812 930.925781 C 427.699219 951.082031 438.691406 970.015625 456.402344 985.289062 C 617.625 968.183594 742.207031 925.429688 832.589844 877.785156 C 815.492188 869.84375 643.273438 865.566406 610.910156 872.285156 Z M 773.964844 831.363281 C 780.070312 831.363281 781.292969 835.027344 781.902344 839.914062 C 781.902344 844.800781 782.511719 850.296875 782.511719 850.296875 L 766.636719 849.6875 L 766.636719 839.914062 C 766.636719 835.027344 767.855469 831.363281 773.964844 831.363281 Z M 735.488281 825.863281 C 742.816406 825.863281 744.648438 830.140625 744.648438 835.636719 C 745.261719 841.136719 745.261719 847.855469 745.261719 847.855469 L 726.328125 847.242188 L 726.328125 835.027344 C 726.328125 828.308594 728.160156 825.863281 735.488281 825.863281 Z M 602.96875 767.226562 L 602.96875 949.859375 L 562.050781 957.800781 L 578.542969 624.296875 L 602.96875 667.050781 Z M 660.375 930.3125 L 636.558594 930.3125 L 636.558594 877.785156 L 660.375 869.84375 Z M 704.34375 916.875 L 684.800781 916.875 L 684.800781 877.785156 L 704.34375 869.84375 Z M 727.550781 906.492188 L 727.550781 879.003906 L 745.261719 871.066406 L 745.261719 906.492188 Z M 727.550781 906.492188 "/>
<path style=" stroke:none;fill-rule:nonzero;fill:rgb(9.019608%,27.843139%,61.960787%);fill-opacity:1;" d="M 745.261719 696.371094 C 745.261719 691.484375 743.429688 683.542969 736.101562 681.101562 L 735.488281 681.101562 L 732.4375 643.230469 C 732.4375 641.398438 731.824219 640.175781 729.992188 640.175781 C 728.160156 640.175781 727.550781 641.398438 727.550781 643.230469 L 725.109375 681.101562 C 716.558594 684.15625 715.949219 694.539062 715.949219 696.371094 L 714.726562 721.414062 C 714.726562 721.414062 723.886719 720.804688 746.480469 718.359375 Z M 745.261719 696.371094 "/>
<path style=" stroke:none;fill-rule:evenodd;fill:rgb(81.568629%,12.54902%,18.039216%);fill-opacity:1;" d="M 1022.515625 670.105469 C 846.636719 861.292969 672.589844 949.25 288.460938 994.449219 C 852.132812 992.007812 1049.996094 732.410156 1022.515625 670.105469 Z M 1022.515625 670.105469 "/>
</g>
</svg>
