<?xml version="1.0" encoding="UTF-8"?>
<svg xmlns="http://www.w3.org/2000/svg" xmlns:xlink="http://www.w3.org/1999/xlink" width="2600px" height="1733px" viewBox="0 0 2600 1733" version="1.1">
<g id="surface1">
<path style=" stroke:none;fill-rule:nonzero;fill:rgb(81.176472%,3.921569%,17.254902%);fill-opacity:1;" d="M 1147.886719 918.253906 L 1147.886719 696.003906 L 1201.875 696.003906 C 1227.914062 696.003906 1248.238281 697.90625 1263.480469 702.351562 C 1279.992188 706.796875 1294.601562 713.78125 1307.304688 724.578125 C 1333.980469 745.53125 1347.316406 772.835938 1347.316406 807.128906 C 1347.316406 841.417969 1333.34375 868.722656 1305.398438 890.3125 C 1291.425781 901.109375 1276.816406 908.09375 1261.574219 912.539062 C 1246.96875 916.984375 1227.277344 918.886719 1200.601562 918.886719 L 1147.886719 918.886719 Z M 1186.628906 887.136719 L 1204.414062 887.136719 C 1222.199219 887.136719 1236.804688 885.867188 1248.238281 882.058594 C 1259.667969 878.882812 1270.46875 873.167969 1279.992188 866.183594 C 1299.046875 850.941406 1308.574219 831.257812 1308.574219 807.128906 C 1308.574219 782.996094 1299.046875 763.3125 1279.992188 748.074219 C 1262.84375 734.738281 1237.441406 727.753906 1204.414062 727.753906 L 1186.628906 727.753906 Z M 1425.4375 696.636719 L 1425.4375 830.621094 C 1425.4375 849.671875 1429.246094 863.640625 1436.234375 872.53125 C 1447.03125 885.234375 1462.273438 891.582031 1481.960938 891.582031 C 1501.652344 891.582031 1516.894531 885.234375 1527.691406 872.53125 C 1534.675781 864.277344 1538.488281 850.308594 1538.488281 830.621094 L 1538.488281 696.636719 L 1577.230469 696.636719 L 1577.230469 839.511719 C 1577.230469 863.007812 1568.972656 882.058594 1551.824219 897.296875 C 1532.773438 914.441406 1509.273438 922.699219 1481.328125 922.699219 C 1453.382812 922.699219 1429.882812 914.441406 1411.464844 897.296875 C 1394.316406 882.058594 1386.058594 863.007812 1386.058594 839.511719 L 1386.058594 696.636719 Z M 1655.351562 696.636719 L 1655.351562 887.136719 L 1745.539062 887.136719 L 1745.539062 918.886719 L 1615.972656 918.886719 L 1615.972656 696.636719 Z M 1823.660156 696.636719 L 1823.660156 887.136719 L 1913.84375 887.136719 L 1913.84375 918.886719 L 1784.28125 918.886719 L 1784.28125 696.636719 Z M 2094.855469 727.753906 L 1991.332031 727.753906 L 1991.332031 781.09375 L 2091.679688 781.09375 L 2091.679688 812.84375 L 1991.332031 812.84375 L 1991.332031 887.136719 L 2094.855469 887.136719 L 2094.855469 918.886719 L 1951.953125 918.886719 L 1951.953125 696.636719 L 2094.855469 696.636719 Z M 2293.015625 729.023438 L 2261.257812 744.898438 C 2255.542969 736.007812 2249.824219 730.292969 2244.109375 727.753906 C 2238.394531 724.578125 2231.40625 723.308594 2222.515625 723.308594 C 2211.71875 723.308594 2202.828125 725.847656 2195.839844 730.925781 C 2188.855469 736.007812 2185.042969 742.359375 2185.042969 750.613281 C 2185.042969 761.40625 2194.570312 770.296875 2212.988281 776.648438 L 2239.027344 785.539062 C 2259.988281 792.523438 2275.230469 802.046875 2284.757812 812.207031 C 2294.285156 823.003906 2299.363281 835.703125 2299.363281 850.941406 C 2299.363281 871.261719 2291.109375 888.40625 2275.867188 901.742188 C 2259.988281 915.078125 2240.296875 922.0625 2216.164062 922.0625 C 2193.933594 922.0625 2174.882812 916.347656 2160.273438 904.917969 C 2145.664062 893.488281 2136.773438 877.613281 2133.597656 856.65625 L 2172.976562 849.039062 C 2174.882812 862.371094 2178.054688 871.261719 2182.503906 876.34375 C 2190.757812 885.867188 2202.191406 890.949219 2217.433594 890.949219 C 2229.5 890.949219 2239.664062 887.136719 2247.921875 880.789062 C 2256.175781 873.800781 2259.988281 864.914062 2259.988281 854.117188 C 2259.988281 849.671875 2259.351562 845.863281 2258.082031 842.050781 C 2256.8125 838.242188 2254.269531 835.066406 2251.730469 831.890625 C 2248.554688 828.71875 2244.746094 826.175781 2240.296875 823.636719 C 2235.851562 821.097656 2230.136719 818.558594 2223.785156 816.015625 L 2199.015625 807.128906 C 2163.449219 794.425781 2145.664062 775.378906 2145.664062 750.613281 C 2145.664062 734.101562 2153.285156 720.132812 2167.894531 708.703125 C 2182.503906 697.273438 2200.921875 691.558594 2223.148438 691.558594 C 2253 692.191406 2275.867188 704.257812 2293.015625 729.023438 Z M 2293.015625 729.023438 "/>
<path style=" stroke:none;fill-rule:nonzero;fill:rgb(0%,29.019609%,59.215689%);fill-opacity:1;" d="M 1166.308594 973.496094 L 1166.308594 1088.433594 L 1149.792969 1088.433594 L 1149.792969 973.496094 Z M 1199.96875 1088.433594 L 1199.96875 965.878906 L 1279.992188 1053.507812 L 1279.992188 973.496094 L 1296.507812 973.496094 L 1296.507812 1095.417969 L 1216.480469 1007.789062 L 1216.480469 1088.433594 Z M 1354.9375 990.007812 L 1354.9375 1088.433594 L 1338.425781 1088.433594 L 1338.425781 990.007812 L 1313.019531 990.007812 L 1313.019531 973.496094 L 1379.707031 973.496094 L 1379.707031 990.007812 Z M 1459.097656 990.007812 L 1415.273438 990.007812 L 1415.273438 1017.3125 L 1457.828125 1017.3125 L 1457.828125 1033.824219 L 1415.273438 1033.824219 L 1415.273438 1071.921875 L 1459.097656 1071.921875 L 1459.097656 1088.433594 L 1398.761719 1088.433594 L 1398.761719 973.496094 L 1459.097656 973.496094 Z M 1514.988281 1039.539062 L 1548.648438 1088.433594 L 1528.328125 1088.433594 L 1497.207031 1041.441406 L 1494.03125 1041.441406 L 1494.03125 1088.433594 L 1477.515625 1088.433594 L 1477.515625 973.496094 L 1497.207031 973.496094 C 1511.8125 973.496094 1521.976562 976.671875 1528.328125 981.753906 C 1535.3125 988.101562 1539.125 996.359375 1539.125 1007.152344 C 1539.125 1015.40625 1536.582031 1022.390625 1532.773438 1028.109375 C 1528.328125 1033.824219 1522.609375 1037.632812 1514.988281 1039.539062 Z M 1494.664062 1026.203125 L 1499.746094 1026.203125 C 1515.625 1026.203125 1523.246094 1019.851562 1523.246094 1007.152344 C 1523.246094 995.722656 1515.625 989.371094 1500.382812 989.371094 L 1494.664062 989.371094 Z M 1564.527344 1088.433594 L 1564.527344 965.878906 L 1644.554688 1053.507812 L 1644.554688 973.496094 L 1661.066406 973.496094 L 1661.066406 1095.417969 L 1581.042969 1007.789062 L 1581.042969 1088.433594 Z M 1751.253906 1060.492188 L 1704.253906 1060.492188 L 1692.1875 1088.433594 L 1674.40625 1088.433594 L 1728.390625 966.511719 L 1780.46875 1088.433594 L 1762.6875 1088.433594 Z M 1744.902344 1043.984375 L 1728.390625 1005.246094 L 1711.242188 1043.984375 Z M 1812.859375 990.007812 L 1812.859375 1088.433594 L 1796.347656 1088.433594 L 1796.347656 990.007812 L 1770.941406 990.007812 L 1770.941406 973.496094 L 1837.632812 973.496094 L 1837.632812 990.007812 Z M 1873.199219 973.496094 L 1873.199219 1088.433594 L 1856.683594 1088.433594 L 1856.683594 973.496094 Z M 1890.980469 1030.648438 C 1890.980469 1014.773438 1896.699219 1000.800781 1908.128906 988.738281 C 1919.5625 977.308594 1932.898438 971.59375 1948.777344 971.59375 C 1964.65625 971.59375 1977.992188 977.308594 1988.789062 989.371094 C 2000.222656 1000.800781 2005.9375 1015.40625 2005.9375 1031.28125 C 2005.9375 1047.792969 2000.222656 1061.761719 1988.789062 1073.191406 C 1977.359375 1084.621094 1964.019531 1090.335938 1947.507812 1090.335938 C 1933.535156 1090.335938 1920.832031 1085.257812 1909.398438 1075.097656 C 1897.332031 1063.667969 1890.980469 1049.0625 1890.980469 1030.648438 Z M 1907.496094 1030.648438 C 1907.496094 1043.347656 1911.304688 1053.507812 1919.5625 1061.761719 C 1927.820312 1070.015625 1936.710938 1073.828125 1947.507812 1073.828125 C 1958.9375 1073.828125 1968.464844 1069.382812 1976.722656 1061.128906 C 1984.34375 1052.871094 1988.789062 1042.710938 1988.789062 1030.648438 C 1988.789062 1018.582031 1984.980469 1008.421875 1977.359375 1000.167969 C 1969.738281 991.914062 1960.210938 987.46875 1948.777344 987.46875 C 1937.34375 987.46875 1927.820312 991.914062 1920.195312 1000.167969 C 1911.941406 1008.421875 1907.496094 1018.582031 1907.496094 1030.648438 Z M 2023.722656 1088.433594 L 2023.722656 965.878906 L 2103.746094 1053.507812 L 2103.746094 973.496094 L 2120.261719 973.496094 L 2120.261719 1095.417969 L 2040.234375 1007.789062 L 2040.234375 1088.433594 Z M 2209.175781 1060.492188 L 2162.179688 1060.492188 L 2150.109375 1088.433594 L 2132.328125 1088.433594 L 2186.3125 966.511719 L 2238.394531 1088.433594 L 2220.609375 1088.433594 Z M 2202.191406 1043.984375 L 2185.679688 1005.246094 L 2168.53125 1043.984375 Z M 2267.609375 973.496094 L 2267.609375 1071.921875 L 2300 1071.921875 L 2300 1088.433594 L 2251.09375 1088.433594 L 2251.09375 973.496094 Z M 2267.609375 973.496094 "/>
<path style=" stroke:none;fill-rule:nonzero;fill:rgb(81.568629%,12.54902%,18.039216%);fill-opacity:1;" d="M 437.1875 1014.773438 C 366.050781 925.238281 457.511719 845.863281 561.035156 798.871094 L 561.671875 776.011719 C 421.308594 829.988281 331.757812 943.652344 437.1875 1014.773438 Z M 895.746094 738.546875 C 885.582031 732.199219 861.449219 718.863281 856.367188 716.324219 C 850.015625 713.148438 834.136719 711.878906 834.136719 711.878906 C 841.125 716.324219 872.246094 737.914062 872.246094 737.914062 C 816.988281 729.023438 712.195312 732.199219 630.261719 754.421875 L 630.261719 772.835938 C 716.003906 746.800781 794.125 742.359375 872.878906 745.53125 C 865.257812 748.074219 851.285156 753.152344 847.476562 754.421875 C 847.476562 754.421875 860.179688 755.691406 865.257812 754.421875 C 868.433594 753.789062 880.5 750.613281 890.027344 748.074219 C 907.8125 749.976562 933.851562 752.515625 942.742188 756.328125 C 940.203125 745.53125 921.785156 743.628906 895.746094 738.546875 Z M 895.746094 738.546875 "/>
<path style=" stroke:none;fill-rule:nonzero;fill:rgb(9.019608%,27.843139%,61.960787%);fill-opacity:1;" d="M 788.410156 1082.082031 C 808.734375 1079.542969 827.785156 1076.367188 846.839844 1071.921875 L 900.191406 937.300781 C 803.015625 1003.976562 675.355469 1026.835938 533.726562 1059.222656 C 597.238281 1084.621094 689.328125 1094.78125 788.410156 1082.082031 Z M 1095.171875 885.234375 C 1090.726562 850.308594 1062.78125 821.097656 1019.59375 800.777344 C 1011.335938 816.015625 1003.082031 830.621094 994.1875 843.957031 C 956.714844 915.078125 911.621094 1026.203125 904 1057.316406 C 1023.402344 1019.21875 1103.429688 951.273438 1095.171875 885.234375 Z M 1095.171875 885.234375 "/>
<path style=" stroke:none;fill-rule:nonzero;fill:rgb(9.019608%,27.843139%,61.960787%);fill-opacity:1;" d="M 635.34375 906.824219 L 635.34375 900.472656 C 677.261719 882.691406 858.273438 889.675781 867.800781 898.566406 L 867.800781 911.902344 C 938.933594 874.4375 989.109375 834.433594 1018.957031 801.414062 L 1019.59375 800.777344 C 967.511719 776.011719 893.839844 762.675781 810.636719 765.851562 C 841.757812 789.347656 861.449219 826.8125 867.164062 849.671875 C 877.324219 850.941406 889.394531 854.753906 889.394531 854.753906 L 877.960938 861.738281 C 881.773438 862.371094 883.675781 862.371094 883.675781 862.371094 L 883.042969 888.40625 C 883.042969 888.40625 830.960938 883.328125 828.421875 885.234375 C 828.421875 885.867188 827.785156 860.46875 827.785156 859.199219 C 833.503906 857.292969 857.003906 859.199219 871.609375 861.101562 C 870.976562 860.46875 869.703125 860.46875 867.800781 859.832031 C 803.652344 839.511719 731.882812 834.433594 655.667969 840.78125 C 692.503906 827.449219 746.492188 826.175781 806.828125 836.335938 C 806.828125 828.082031 794.125 749.976562 742.679688 750.613281 C 686.789062 751.882812 662.019531 813.476562 655.667969 838.242188 C 655.035156 815.382812 658.84375 798.871094 665.195312 786.808594 C 654.398438 789.347656 644.234375 792.523438 634.074219 795.699219 L 632.804688 688.382812 L 602.316406 637.582031 L 568.023438 688.382812 L 554.683594 828.082031 C 480.375 866.183594 435.917969 916.984375 442.265625 967.78125 C 444.808594 988.738281 456.238281 1008.421875 474.660156 1024.296875 C 642.332031 1006.515625 771.894531 962.066406 865.894531 912.539062 C 848.109375 904.28125 669.007812 899.835938 635.34375 906.824219 Z M 804.921875 864.277344 C 811.273438 864.277344 812.542969 868.085938 813.179688 873.167969 C 813.179688 878.246094 813.8125 883.960938 813.8125 883.960938 L 797.300781 883.328125 L 797.300781 873.167969 C 797.300781 868.085938 798.570312 864.277344 804.921875 864.277344 Z M 764.910156 858.5625 C 772.53125 858.5625 774.4375 863.007812 774.4375 868.722656 C 775.070312 874.4375 775.070312 881.421875 775.070312 881.421875 L 755.382812 880.789062 L 755.382812 868.085938 C 755.382812 861.101562 757.289062 858.5625 764.910156 858.5625 Z M 627.089844 797.601562 L 627.089844 987.46875 L 584.535156 995.722656 L 601.683594 649.011719 L 627.089844 693.460938 Z M 686.789062 967.148438 L 662.019531 967.148438 L 662.019531 912.539062 L 686.789062 904.28125 Z M 732.519531 953.175781 L 712.195312 953.175781 L 712.195312 912.539062 L 732.519531 904.28125 Z M 756.652344 942.382812 L 756.652344 913.808594 L 775.070312 905.550781 L 775.070312 942.382812 Z M 756.652344 942.382812 "/>
<path style=" stroke:none;fill-rule:nonzero;fill:rgb(9.019608%,27.843139%,61.960787%);fill-opacity:1;" d="M 775.070312 723.941406 C 775.070312 718.863281 773.167969 710.609375 765.542969 708.066406 L 764.910156 708.066406 L 761.734375 668.699219 C 761.734375 666.792969 761.097656 665.523438 759.195312 665.523438 C 757.289062 665.523438 756.652344 666.792969 756.652344 668.699219 L 754.113281 708.066406 C 745.222656 711.242188 744.585938 722.039062 744.585938 723.941406 L 743.316406 749.976562 C 743.316406 749.976562 752.84375 749.34375 776.339844 746.800781 Z M 775.070312 723.941406 "/>
<path style=" stroke:none;fill-rule:evenodd;fill:rgb(81.568629%,12.54902%,18.039216%);fill-opacity:1;" d="M 1063.417969 696.636719 C 880.5 895.390625 699.492188 986.832031 300 1033.824219 C 886.21875 1031.28125 1091.996094 761.40625 1063.417969 696.636719 Z M 1063.417969 696.636719 "/>
</g>
</svg>
