<svg xmlns="http://www.w3.org/2000/svg" height="800" width="1200" viewBox="-47.235 -18.025 409.37 108.15"><path d="M133.5 44.2v-35h8.5c4.1 0 7.3.3 9.7 1 2.6.7 4.9 1.8 6.9 3.5 4.2 3.3 6.3 7.6 6.3 13s-2.2 9.7-6.6 13.1c-2.2 1.7-4.5 2.8-6.9 3.5-2.3.7-5.4 1-9.6 1h-8.3zm6.1-4.9h2.8c2.8 0 5.1-.2 6.9-.8 1.8-.5 3.5-1.4 5-2.5 3-2.4 4.5-5.5 4.5-9.3 0-3.8-1.5-6.9-4.5-9.3-2.7-2.1-6.7-3.2-11.9-3.2h-2.8zm37.6-30v21.1c0 3 .6 5.2 1.7 6.6 1.7 2 4.1 3 7.2 3 3.1 0 5.5-1 7.2-3 1.1-1.3 1.7-3.5 1.7-6.6V9.3h6.1v22.5c0 3.7-1.3 6.7-4 9.1-3 2.7-6.7 4-11.1 4-4.4 0-8.1-1.3-11-4-2.7-2.4-4-5.4-4-9.1V9.3zm36.2 0v30h14.2v5h-20.4v-35zm26.5 0v30h14.2v5h-20.4v-35zm42.7 4.9h-16.3v8.4h15.8v5h-15.8v11.7h16.3v5h-22.5v-35h22.5zm31.2.2l-5 2.5c-.9-1.4-1.8-2.3-2.7-2.7-.9-.5-2-.7-3.4-.7-1.7 0-3.1.4-4.2 1.2-1.1.8-1.7 1.8-1.7 3.1 0 1.7 1.5 3.1 4.4 4.1l4.1 1.4c3.3 1.1 5.7 2.6 7.2 4.2 1.5 1.7 2.3 3.7 2.3 6.1 0 3.2-1.3 5.9-3.7 8-2.5 2.1-5.6 3.2-9.4 3.2-3.5 0-6.5-.9-8.8-2.7-2.3-1.8-3.7-4.3-4.2-7.6l6.2-1.2c.3 2.1.8 3.5 1.5 4.3 1.3 1.5 3.1 2.3 5.5 2.3 1.9 0 3.5-.6 4.8-1.6 1.3-1.1 1.9-2.5 1.9-4.2 0-.7-.1-1.3-.3-1.9-.2-.6-.6-1.1-1-1.6-.5-.5-1.1-.9-1.8-1.3s-1.6-.8-2.6-1.2l-3.9-1.4c-5.6-2-8.4-5-8.4-8.9 0-2.6 1.2-4.8 3.5-6.6 2.3-1.8 5.2-2.7 8.7-2.7 4.7.1 8.3 2 11 5.9z" fill="#CF0A2C"/><path d="M136.4 52.9V71h-2.6V52.9zm5.3 18.1V51.7l12.6 13.8V52.9h2.6v19.2l-12.6-13.8V71zm24.4-15.5V71h-2.6V55.5h-4v-2.6H170v2.6zm16.4 0h-6.9v4.3h6.7v2.6h-6.7v6h6.9V71H173V52.9h9.5zm8.8 7.8l5.3 7.7h-3.2l-4.9-7.4h-.5V71h-2.6V52.9h3.1c2.3 0 3.9.5 4.9 1.3 1.1 1 1.7 2.3 1.7 4 0 1.3-.4 2.4-1 3.3-.7.9-1.6 1.5-2.8 1.8zm-3.2-2.1h.8c2.5 0 3.7-1 3.7-3 0-1.8-1.2-2.8-3.6-2.8h-.9zm11 9.8V51.7l12.6 13.8V52.9h2.6v19.2l-12.6-13.8V71zm29.4-4.4h-7.4l-1.9 4.4h-2.8l8.5-19.2 8.2 19.2h-2.8zm-1-2.6l-2.6-6.1-2.7 6.1zm10.7-8.5V71h-2.6V55.5h-4v-2.6h10.5v2.6zm9.5-2.6V71h-2.6V52.9zm2.8 9c0-2.5.9-4.7 2.7-6.6 1.8-1.8 3.9-2.7 6.4-2.7 2.5 0 4.6.9 6.3 2.8 1.8 1.8 2.7 4.1 2.7 6.6 0 2.6-.9 4.8-2.7 6.6-1.8 1.8-3.9 2.7-6.5 2.7-2.2 0-4.2-.8-6-2.4-1.9-1.8-2.9-4.1-2.9-7zm2.6 0c0 2 .6 3.6 1.9 4.9 1.3 1.3 2.7 1.9 4.4 1.9 1.8 0 3.3-.7 4.6-2 1.2-1.3 1.9-2.9 1.9-4.8s-.6-3.5-1.8-4.8c-1.2-1.3-2.7-2-4.5-2-1.8 0-3.3.7-4.5 2-1.3 1.3-2 2.9-2 4.8zm18.3 9.1V51.7L284 65.5V52.9h2.6v19.2L274 58.3V71zm29.2-4.4h-7.4l-1.9 4.4h-2.8l8.5-19.2 8.2 19.2h-2.8zm-1.1-2.6l-2.6-6.1-2.7 6.1zm10.3-11.1v15.5h5.1V71h-7.7V52.9z" fill="#004A97"/><path d="M21.6 59.4c-11.2-14.1 3.2-26.6 19.5-34l.1-3.6C19.1 30.3 5 48.2 21.6 59.4zm72.2-43.5c-1.6-1-5.4-3.1-6.2-3.5-1-.5-3.5-.7-3.5-.7 1.1.7 6 4.1 6 4.1-8.7-1.4-25.2-.9-38.1 2.6v2.9c13.5-4.1 25.8-4.8 38.2-4.3-1.2.4-3.4 1.2-4 1.4 0 0 2 .2 2.8 0 .5-.1 2.4-.6 3.9-1 2.8.3 6.9.7 8.3 1.3-.4-1.7-3.3-2-7.4-2.8z" fill="#D0202E"/><g fill="#17479E"><path d="M76.9 70c3.2-.4 6.2-.9 9.2-1.6l8.4-21.2C79.2 57.7 59.1 61.3 36.8 66.4c10 4 24.5 5.6 40.1 3.6zm48.3-31c-.7-5.5-5.1-10.1-11.9-13.3-1.3 2.4-2.6 4.7-4 6.8-5.9 11.2-13 28.7-14.2 33.6 18.8-6 31.4-16.7 30.1-27.1z"/><path d="M52.8 42.4v-1c6.6-2.8 35.1-1.7 36.6-.3v2.1c11.2-5.9 19.1-12.2 23.8-17.4l.1-.1c-8.2-3.9-19.8-6-32.9-5.5 4.9 3.7 8 9.6 8.9 13.2 1.6.2 3.5.8 3.5.8L91 35.3c.6.1.9.1.9.1l-.1 4.1s-8.2-.8-8.6-.5c0 .1-.1-3.9-.1-4.1.9-.3 4.6 0 6.9.3-.1-.1-.3-.1-.6-.2C79.3 31.8 68 31 56 32c5.8-2.1 14.3-2.3 23.8-.7 0-1.3-2-13.6-10.1-13.5C60.9 18 57 27.7 56 31.6c-.1-3.6.5-6.2 1.5-8.1-1.7.4-3.3.9-4.9 1.4L52.4 8l-4.8-8-5.4 8-2.1 22c-11.7 6-18.7 14-17.7 22 .4 3.3 2.2 6.4 5.1 8.9 26.4-2.8 46.8-9.8 61.6-17.6-2.8-1.3-31-2-36.3-.9zm26.7-6.7c1 0 1.2.6 1.3 1.4 0 .8.1 1.7.1 1.7l-2.6-.1v-1.6c0-.8.2-1.4 1.2-1.4zm-6.3-.9c1.2 0 1.5.7 1.5 1.6.1.9.1 2 .1 2l-3.1-.1v-2c0-1.1.3-1.5 1.5-1.5zm-21.7-9.6v29.9l-6.7 1.3 2.7-54.6 4 7zm9.4 26.7H57v-8.6l3.9-1.3zm7.2-2.2h-3.2v-6.4l3.2-1.3zm3.8-1.7v-4.5l2.9-1.3V48z"/><path d="M74.8 13.6c0-.8-.3-2.1-1.5-2.5h-.1l-.5-6.2c0-.3-.1-.5-.4-.5-.3 0-.4.2-.4.5l-.4 6.2c-1.4.5-1.5 2.2-1.5 2.5l-.2 4.1s1.5-.1 5.2-.5z"/></g><path d="M120.2 9.3C91.4 40.6 62.9 55 0 62.4 92.3 62 124.7 19.5 120.2 9.3z" fill="#D0202E" clip-rule="evenodd" fill-rule="evenodd"/></svg>